<svg width="21" height="21" viewBox="0 0 21 21" fill="none" xmlns="http://www.w3.org/2000/svg">
<path d="M14.3369 4C14.6147 4.00001 14.8213 4.08794 14.9922 4.25879C15.1628 4.4294 15.2504 4.63562 15.25 4.91309V14.9209C15.2499 15.2134 15.1531 15.431 14.9375 15.6074L14.8379 15.6807C14.5561 15.8675 14.2865 15.8926 13.9688 15.7559V15.7549L10.6973 14.3486L10.5 14.2637L10.3027 14.3486L7.03125 15.7549V15.7559C6.75323 15.8755 6.51224 15.8712 6.26758 15.7432L6.16211 15.6807L6.0625 15.6074C5.84688 15.431 5.75009 15.2134 5.75 14.9209V4.91406C5.75 4.6355 5.83754 4.42874 6.00781 4.25879C6.15739 4.10954 6.33505 4.02338 6.56348 4.00391L6.66504 4H14.3369Z" fill="#FBFBFB" stroke="#D1D6DB"/>
</svg>
