<svg width="12" height="12" viewBox="0 0 12 12" fill="none" xmlns="http://www.w3.org/2000/svg">
<path d="M0.75 3.375C0.75 2.87772 0.947544 2.40081 1.29917 2.04917C1.65081 1.69754 2.12772 1.5 2.625 1.5H9.375C9.87228 1.5 10.3492 1.69754 10.7008 2.04917C11.0525 2.40081 11.25 2.87772 11.25 3.375V7.125C11.25 7.37123 11.2015 7.61505 11.1073 7.84253C11.013 8.07002 10.8749 8.27672 10.7008 8.45083C10.5267 8.62494 10.32 8.76305 10.0925 8.85727C9.86505 8.9515 9.62123 9 9.375 9H6.516L4.21875 11.01C4.11245 11.1029 3.98164 11.1633 3.84196 11.1838C3.70227 11.2044 3.55962 11.1842 3.43107 11.1259C3.30252 11.0675 3.1935 10.9733 3.11706 10.8546C3.04061 10.7359 2.99997 10.5977 3 10.4565V9H2.625C2.12772 9 1.65081 8.80246 1.29917 8.45083C0.947544 8.09919 0.75 7.62228 0.75 7.125V3.375ZM2.625 2.25C2.32663 2.25 2.04048 2.36853 1.8295 2.5795C1.61853 2.79048 1.5 3.07663 1.5 3.375V7.125C1.5 7.42337 1.61853 7.70952 1.8295 7.9205C2.04048 8.13147 2.32663 8.25 2.625 8.25H3.75V10.4235L6.234 8.25H9.375C9.67337 8.25 9.95952 8.13147 10.1705 7.9205C10.3815 7.70952 10.5 7.42337 10.5 7.125V3.375C10.5 3.07663 10.3815 2.79048 10.1705 2.5795C9.95952 2.36853 9.67337 2.25 9.375 2.25H2.625Z" fill="#7D7D7D"/>
</svg>
