<svg width="12" height="12" viewBox="0 0 12 12" fill="none" xmlns="http://www.w3.org/2000/svg">
<g clip-path="url(#clip0_1111_1413)">
<path d="M8.625 0.75C10.5225 0.75 12 2.19 12 4.215C12 6.6525 9.8925 9.0375 6.4725 11.0775C6.33525 11.1638 6.13725 11.25 6 11.25C5.87025 11.25 5.66475 11.1638 5.5275 11.0775C2.1075 9.0375 0 6.6525 0 4.215C0 2.19 1.4775 0.75 3.375 0.75C4.575 0.75 5.445 1.3755 6 2.3025C6.5565 1.365 7.425 0.75 8.625 0.75ZM8.625 1.5C7.77 1.5 7.11 1.908 6.645 2.685L5.9985 3.7725L5.35575 2.685C4.89825 1.9125 4.23075 1.5 3.37575 1.5C1.86825 1.5 0.75075 2.625 0.75075 4.215C0.75075 6.24 2.55825 8.4375 5.92575 10.44L5.97525 10.4677L5.99775 10.4797L6.05625 10.4497L6.08775 10.431C9.44025 8.4285 11.2477 6.2385 11.2477 4.2135C11.2477 2.6235 10.1302 1.4985 8.62275 1.4985L8.625 1.5Z" fill="#7D7D7D"/>
</g>
<defs>
<clipPath id="clip0_1111_1413">
<rect width="12" height="12" fill="white"/>
</clipPath>
</defs>
</svg>
