<svg width="16" height="16" viewBox="0 0 16 16" fill="none" xmlns="http://www.w3.org/2000/svg">
<path d="M8.00016 9.33333C9.47083 9.33333 10.6668 8.13733 10.6668 6.66667C10.6668 5.196 9.47083 4 8.00016 4C6.5295 4 5.3335 5.196 5.3335 6.66667C5.3335 8.13733 6.5295 9.33333 8.00016 9.33333ZM8.00016 5.33333C8.7355 5.33333 9.3335 5.93133 9.3335 6.66667C9.3335 7.402 8.7355 8 8.00016 8C7.26483 8 6.66683 7.402 6.66683 6.66667C6.66683 5.93133 7.26483 5.33333 8.00016 5.33333Z" fill="#3D4352"/>
<path d="M7.61323 14.5423C7.72614 14.6227 7.86129 14.6659 7.9999 14.6659C8.1385 14.6659 8.27366 14.6227 8.38656 14.5423C8.58923 14.399 13.3526 10.9597 13.3332 6.66634C13.3332 3.72567 10.9406 1.33301 7.9999 1.33301C5.05923 1.33301 2.66656 3.72567 2.66656 6.66301C2.64723 10.9597 7.41056 14.399 7.61323 14.5423ZM7.9999 2.66634C10.2059 2.66634 11.9999 4.46034 11.9999 6.66968C12.0139 9.62834 9.07456 12.285 7.9999 13.1563C6.9259 12.2843 3.9859 9.62701 3.9999 6.66634C3.9999 4.46034 5.7939 2.66634 7.9999 2.66634Z" fill="#3D4352"/>
</svg>
