<svg width="60" height="12" viewBox="0 0 60 12" fill="none" xmlns="http://www.w3.org/2000/svg">
<path d="M5.13108 1.20139C5.29618 0.775873 5.89827 0.775873 6.06337 1.20139L6.96495 3.52504C7.03397 3.70292 7.19819 3.82601 7.38828 3.84234L9.78757 4.04854C10.2211 4.08579 10.4034 4.62069 10.0829 4.91499L8.20527 6.63915C8.07373 6.75994 8.01659 6.94172 8.05539 7.11605L8.62 9.65335C8.71745 10.0913 8.2334 10.426 7.85804 10.1803L5.87111 8.87933C5.70476 8.77041 5.48969 8.77041 5.32334 8.87933L3.33641 10.1803C2.96105 10.426 2.477 10.0913 2.57445 9.65335L3.13907 7.11605C3.17786 6.94172 3.12072 6.75994 2.98918 6.63915L1.11151 4.91499C0.791006 4.62069 0.973347 4.08579 1.40688 4.04854L3.80617 3.84234C3.99626 3.82601 4.16048 3.70292 4.2295 3.52504L5.13108 1.20139Z" fill="#03C473"/>
<path d="M17.3323 1.20139C17.4974 0.775873 18.0994 0.775873 18.2645 1.20139L19.1661 3.52504C19.2351 3.70292 19.3994 3.82601 19.5895 3.84234L21.9887 4.04854C22.4223 4.08579 22.6046 4.62069 22.2841 4.91499L20.4064 6.63915C20.2749 6.75994 20.2178 6.94172 20.2566 7.11605L20.8212 9.65335C20.9186 10.0913 20.4346 10.426 20.0592 10.1803L18.0723 8.87933C17.9059 8.77041 17.6909 8.77041 17.5245 8.87933L15.5376 10.1803C15.1622 10.426 14.6782 10.0913 14.7756 9.65335L15.3402 7.11605C15.379 6.94172 15.3219 6.75994 15.1904 6.63915L13.3127 4.91499C12.9922 4.62069 13.1745 4.08579 13.608 4.04854L16.0073 3.84234C16.1974 3.82601 16.3617 3.70292 16.4307 3.52504L17.3323 1.20139Z" fill="#03C473"/>
<path d="M29.5339 1.20139C29.699 0.775873 30.3011 0.775873 30.4662 1.20139L31.3678 3.52504C31.4368 3.70292 31.601 3.82601 31.7911 3.84234L34.1904 4.04854C34.6239 4.08579 34.8063 4.62069 34.4858 4.91499L32.6081 6.63915C32.4766 6.75994 32.4194 6.94172 32.4582 7.11605L33.0228 9.65335C33.1203 10.0913 32.6362 10.426 32.2609 10.1803L30.2739 8.87933C30.1076 8.77041 29.8925 8.77041 29.7262 8.87933L27.7392 10.1803C27.3639 10.426 26.8798 10.0913 26.9773 9.65335L27.5419 7.11605C27.5807 6.94172 27.5236 6.75994 27.392 6.63915L25.5143 4.91499C25.1938 4.62069 25.3762 4.08579 25.8097 4.04854L28.209 3.84234C28.3991 3.82601 28.5633 3.70292 28.6323 3.52504L29.5339 1.20139Z" fill="#03C473"/>
<path d="M41.7351 1.20139C41.9002 0.775873 42.5023 0.775873 42.6674 1.20139L43.569 3.52504C43.638 3.70292 43.8022 3.82601 43.9923 3.84234L46.3916 4.04854C46.8251 4.08579 47.0074 4.62069 46.6869 4.91499L44.8093 6.63915C44.6777 6.75994 44.6206 6.94172 44.6594 7.11605L45.224 9.65335C45.3215 10.0913 44.8374 10.426 44.462 10.1803L42.4751 8.87933C42.3088 8.77041 42.0937 8.77041 41.9273 8.87933L39.9404 10.1803C39.5651 10.426 39.081 10.0913 39.1785 9.65335L39.7431 7.11605C39.7819 6.94172 39.7247 6.75994 39.5932 6.63915L37.7155 4.91499C37.395 4.62069 37.5774 4.08579 38.0109 4.04854L40.4102 3.84234C40.6003 3.82601 40.7645 3.70292 40.8335 3.52504L41.7351 1.20139Z" fill="#03C473"/>
<path d="M53.9367 1.20139C54.1018 0.775873 54.7039 0.775873 54.869 1.20139L55.7706 3.52504C55.8396 3.70292 56.0039 3.82601 56.1939 3.84234L58.5932 4.04854C59.0268 4.08579 59.2091 4.62069 58.8886 4.91499L57.0109 6.63915C56.8794 6.75994 56.8223 6.94172 56.861 7.11605L57.4257 9.65335C57.5231 10.0913 57.0391 10.426 56.6637 10.1803L54.6768 8.87933C54.5104 8.77041 54.2954 8.77041 54.129 8.87933L52.1421 10.1803C51.7667 10.426 51.2827 10.0913 51.3801 9.65335L51.9447 7.11605C51.9835 6.94172 51.9264 6.75994 51.7948 6.63915L49.9172 4.91499C49.5967 4.62069 49.779 4.08579 50.2125 4.04854L52.6118 3.84234C52.8019 3.82601 52.9661 3.70292 53.0352 3.52504L53.9367 1.20139Z" fill="#D9D9D9"/>
</svg>
