<svg width="18" height="18" viewBox="0 0 18 18" fill="none" xmlns="http://www.w3.org/2000/svg">
<path d="M8.53834 1.10996C8.70914 0.699318 9.29086 0.699318 9.46166 1.10996L11.5278 6.07744C11.5998 6.25056 11.7626 6.36885 11.9495 6.38383L17.3123 6.81376C17.7556 6.8493 17.9354 7.40256 17.5976 7.69189L13.5117 11.1919C13.3693 11.3139 13.3071 11.5053 13.3506 11.6876L14.5989 16.9208C14.7021 17.3534 14.2315 17.6954 13.8519 17.4635L9.26063 14.6592C9.10062 14.5615 8.89938 14.5615 8.73937 14.6592L4.14806 17.4635C3.76851 17.6954 3.29788 17.3534 3.40108 16.9208L4.64939 11.6876C4.69289 11.5053 4.6307 11.3139 4.48831 11.1919L0.402413 7.69189C0.0646446 7.40256 0.244408 6.8493 0.687735 6.81376L6.05054 6.38383C6.23744 6.36885 6.40024 6.25056 6.47225 6.07744L8.53834 1.10996Z" fill="#03C473"/>
</svg>
