<?xml version="1.0" encoding="UTF-8" standalone="no"?>
<svg
   xmlns:dc="http://purl.org/dc/elements/1.1/"
   xmlns:cc="http://creativecommons.org/ns#"
   xmlns:rdf="http://www.w3.org/1999/02/22-rdf-syntax-ns#"
   xmlns:svg="http://www.w3.org/2000/svg"
   xmlns="http://www.w3.org/2000/svg"
   viewBox="0 0 960 720"
   height="720"
   width="960"
   xml:space="preserve"
   id="svg2"
   version="1.1"><metadata
     id="metadata8"><rdf:RDF><cc:Work
         rdf:about=""><dc:format>image/svg+xml</dc:format><dc:type
           rdf:resource="http://purl.org/dc/dcmitype/StillImage" /></cc:Work></rdf:RDF></metadata><defs
     id="defs6"><clipPath
       id="clipPath18"
       clipPathUnits="userSpaceOnUse"><path
         style="clip-rule:evenodd"
         id="path16"
         d="M 0,1.2207e-4 H 720 V 540.00012 H 0 Z" /></clipPath><clipPath
       id="clipPath62"
       clipPathUnits="userSpaceOnUse"><path
         style="clip-rule:evenodd"
         id="path60"
         d="M -3.0518e-5,1.2207e-4 H 719.99997 V 540.00012 H -3.0518e-5 Z" /></clipPath><clipPath
       id="clipPath84"
       clipPathUnits="userSpaceOnUse"><path
         style="clip-rule:evenodd"
         id="path82"
         d="M 0,1.2207e-4 H 720 V 540.00012 H 0 Z" /></clipPath><clipPath
       id="clipPath94"
       clipPathUnits="userSpaceOnUse"><path
         style="clip-rule:evenodd"
         id="path92"
         d="M 0,1.2207e-4 H 720 V 540.00012 H 0 Z" /></clipPath></defs><g
     transform="matrix(1.3333333,0,0,-1.3333333,0,720)"
     id="g10"><g
       id="g12"><g
         clip-path="url(#clipPath18)"
         id="g14"><path
           id="path20"
           style="fill:#ffffff;fill-opacity:1;fill-rule:evenodd;stroke:none"
           d="M 0,6.1035e-5 H 720 V 540.00006 H 0 Z" /></g></g><path
       id="path22"
       style="fill:#66ccff;fill-opacity:1;fill-rule:evenodd;stroke:none"
       d="m 40.334,441.6 c -0.335,-2.84 -0.838,-8.34 -0.838,-8.34 l -4.698,-2.99 v -10.55 -9.12 l -1.678,-5.98 11.241,2.99 3.188,-11.34 12.919,-18.88 11.241,0.79 8.053,9.75 8.053,-1.41 -0.671,-9.92 -5.704,-4.56 10.402,-11.33 16.948,-2.99 4.86,9.13 5.71,-5.35 8.05,2.99 9.56,0.78 8.06,8.34 v 15.11 l 10.57,7.55 4.02,9.13 9.57,8.97 5.7,8.34 -3.19,6.77 5.54,12.12 -8.89,4.56 -6.38,-6.77 -11.24,-0.78 -8.89,-6.77 -8.89,5.19 h -9.57 l -7.38,6.77 -22.48,-0.63 -2.349,-9.13 -8.054,4.57 -15.435,0.78 -14.429,-1.57 -5.704,-1.57 z" /><path
       id="path24"
       style="fill:none;stroke:#ffffff;stroke-width:0.47999999;stroke-linecap:butt;stroke-linejoin:round;stroke-miterlimit:10;stroke-dasharray:none;stroke-opacity:1"
       d="m 40.334,441.6 c -0.335,-2.84 -0.838,-8.34 -0.838,-8.34 l -4.698,-2.99 v -10.55 -9.12 l -1.678,-5.98 11.241,2.99 3.188,-11.34 12.919,-18.88 11.241,0.79 8.053,9.75 8.053,-1.41 -0.671,-9.92 -5.704,-4.56 10.402,-11.33 16.948,-2.99 4.86,9.13 5.71,-5.35 8.05,2.99 9.56,0.78 8.06,8.34 v 15.11 l 10.57,7.55 4.02,9.13 9.57,8.97 5.7,8.34 -3.19,6.77 5.54,12.12 -8.89,4.56 -6.38,-6.77 -11.24,-0.78 -8.89,-6.77 -8.89,5.19 h -9.57 l -7.38,6.77 -22.48,-0.63 -2.349,-9.13 -8.054,4.57 -15.435,0.78 -14.429,-1.57 -5.704,-1.57 z" /><path
       id="path26"
       style="fill:#66ccff;fill-opacity:1;fill-rule:evenodd;stroke:none"
       d="m 188.87,441.62 c -4.02,-0.31 -6.2,0 -10.39,0 l -5.7,-12.61 3.02,-5.36 -4.7,-8.52 -9.72,-9.14 -5.03,-11.04 -11.07,-7.26 1.01,-14.19 -8.38,-10.09 -10.06,0.31 -1.01,-9.46 3.02,-5.05 1.67,-8.51 2.02,-8.52 14.41,-3.78 6.71,-1.26 3.69,-1.26 10.73,12.61 -3.69,9.78 1.01,4.41 3.69,-0.31 10.05,-6.62 8.05,-1.58 4.7,-1.58 1.67,-5.05 10.4,2.53 3.35,-2.84 6.04,-4.73 7.04,3.47 4.36,-5.05 5.7,-5.36 12.4,3.47 7.38,6.62 -1.34,7.26 1.68,4.1 7.04,-0.95 8.38,0.95 -1.01,7.88 -7.71,5.99 -4.36,8.52 -1.67,7.25 0.33,7.26 1.01,6.31 -0.67,4.41 -6.37,5.68 -0.67,2.84 4.35,5.67 v 3.47 l -6.03,7.26 -4.36,7.57 2.68,9.46 -3.69,2.21 -6.03,2.2 -3.35,4.1 -5.71,0.95 -9.72,-2.21 -8.05,-2.84 h -7.71 z" /><path
       id="path28"
       style="fill:none;stroke:#ffffff;stroke-width:0.47999999;stroke-linecap:butt;stroke-linejoin:round;stroke-miterlimit:10;stroke-dasharray:none;stroke-opacity:1"
       d="m 188.87,441.62 c -4.02,-0.31 -6.2,0 -10.39,0 l -5.7,-12.61 3.02,-5.36 -4.7,-8.52 -9.72,-9.14 -5.03,-11.04 -11.07,-7.26 1.01,-14.19 -8.38,-10.09 -10.06,0.31 -1.01,-9.46 3.02,-5.05 1.67,-8.51 2.02,-8.52 14.41,-3.78 6.71,-1.26 3.69,-1.26 10.73,12.61 -3.69,9.78 1.01,4.41 3.69,-0.31 10.05,-6.62 8.05,-1.58 4.7,-1.58 1.67,-5.05 10.4,2.53 3.35,-2.84 6.04,-4.73 7.04,3.47 4.36,-5.05 5.7,-5.36 12.4,3.47 7.38,6.62 -1.34,7.26 1.68,4.1 7.04,-0.95 8.38,0.95 -1.01,7.88 -7.71,5.99 -4.36,8.52 -1.67,7.25 0.33,7.26 1.01,6.31 -0.67,4.41 -6.37,5.68 -0.67,2.84 4.35,5.67 v 3.47 l -6.03,7.26 -4.36,7.57 2.68,9.46 -3.69,2.21 -6.03,2.2 -3.35,4.1 -5.71,0.95 -9.72,-2.21 -8.05,-2.84 h -7.71 z" /><path
       id="path30"
       style="fill:#66ccff;fill-opacity:1;fill-rule:evenodd;stroke:none"
       d="m 287.35,318.74 0.33,-5.67 2.69,-5.68 -2.35,-5.36 -1.34,-9.46 -4.7,-7.56 -6.71,-11.66 -0.33,-9.15 -3.36,0.32 -10.06,11.35 -4.7,-0.63 -2.01,-5.68 -8.05,-0.94 -4.69,-0.32 -0.34,-11.98 7.72,-8.82 0.33,-6.62 -8.39,-5.36 -14.08,-1.26 -11.41,2.2 -4.69,-3.47 -7.38,-5.04 -6.04,-6.3 -7.05,-5.36 -7.04,-2.21 -10.06,3.47 -1.68,10.4 -7.04,5.67 -11.74,-2.52 -6.71,2.52 -2.35,6.94 9.73,2.84 5.7,1.26 -1.34,5.99 -6.04,5.04 0.67,6.62 2.35,4.42 -2.01,6.3 5.03,4.1 5.03,0.94 2.35,3.79 1.34,4.09 13.42,1.27 -5.03,13.55 -0.34,9.77 -2.01,5.05 -10.07,0.94 -7.38,-1.89 -1.67,3.78 2.35,6.94 h 2.01 l 12.41,12.92 -4.36,10.09 0.67,3.47 5.03,-1.26 9.39,-6.62 10.4,-1.89 3.36,-6.31 9.72,3.16 9.73,-7.89 7.04,3.79 10.07,-10.72 12.74,4.73 9.06,8.19 -2.35,5.99 0.67,3.16 8.39,-1.27 5.7,-3.15 0.34,-8.82 7.38,0.94 7.04,5.05 8.39,-3.47 3.02,-5.68 7.71,0.32 -2.01,-5.68 z" /><path
       id="path32"
       style="fill:none;stroke:#ffffff;stroke-width:0.47999999;stroke-linecap:butt;stroke-linejoin:round;stroke-miterlimit:10;stroke-dasharray:none;stroke-opacity:1"
       d="m 287.35,318.74 0.33,-5.67 2.69,-5.68 -2.35,-5.36 -1.34,-9.46 -4.7,-7.56 -6.71,-11.66 -0.33,-9.15 -3.36,0.32 -10.06,11.35 -4.7,-0.63 -2.01,-5.68 -8.05,-0.94 -4.69,-0.32 -0.34,-11.98 7.72,-8.82 0.33,-6.62 -8.39,-5.36 -14.08,-1.26 -11.41,2.2 -4.69,-3.47 -7.38,-5.04 -6.04,-6.3 -7.05,-5.36 -7.04,-2.21 -10.06,3.47 -1.68,10.4 -7.04,5.67 -11.74,-2.52 -6.71,2.52 -2.35,6.94 9.73,2.84 5.7,1.26 -1.34,5.99 -6.04,5.04 0.67,6.62 2.35,4.42 -2.01,6.3 5.03,4.1 5.03,0.94 2.35,3.79 1.34,4.09 13.42,1.27 -5.03,13.55 -0.34,9.77 -2.01,5.05 -10.07,0.94 -7.38,-1.89 -1.67,3.78 2.35,6.94 h 2.01 l 12.41,12.92 -4.36,10.09 0.67,3.47 5.03,-1.26 9.39,-6.62 10.4,-1.89 3.36,-6.31 9.72,3.16 9.73,-7.89 7.04,3.79 10.07,-10.72 12.74,4.73 9.06,8.19 -2.35,5.99 0.67,3.16 8.39,-1.27 5.7,-3.15 0.34,-8.82 7.38,0.94 7.04,5.05 8.39,-3.47 3.02,-5.68 7.71,0.32 -2.01,-5.68 z" /><path
       id="path34"
       style="fill:#66ccff;fill-opacity:1;fill-rule:evenodd;stroke:none"
       d="m 324.09,440.65 c -3.19,-1.42 -7.05,-0.95 -10.4,-0.95 l -15.78,-1.89 -11.74,3.47 h -16.11 l -14.77,5.36 -7.71,-4.41 -4.7,-5.05 1.68,-0.94 -3.36,-9.46 10.07,-14.19 v -6.31 l -4.03,-3.46 7.38,-7.89 v -6.62 l -1,-12.29 5.7,-14.5 7.38,-6.31 1.35,-9.77 -6.38,-0.32 5.71,-3.47 -0.68,-6.62 h 6.04 l 8.39,5.36 10.07,-5.36 1.68,-4.41 h 8.05 l -0.67,-4.1 7.38,5.67 1.68,10.41 11.41,-8.2 2.69,9.14 -4.7,19.55 2.35,0.95 -7.38,7.88 1.34,19.86 6.04,5.68 4.02,5.99 2.02,5.99 6.37,4.1 2.02,1.57 1.34,16.08 -4.36,5.99 -6.04,3.79 z" /><path
       id="path36"
       style="fill:none;stroke:#ffffff;stroke-width:0.47999999;stroke-linecap:butt;stroke-linejoin:round;stroke-miterlimit:10;stroke-dasharray:none;stroke-opacity:1"
       d="m 324.09,440.65 c -3.19,-1.42 -7.05,-0.95 -10.4,-0.95 l -15.78,-1.89 -11.74,3.47 h -16.11 l -14.77,5.36 -7.71,-4.41 -4.7,-5.05 1.68,-0.94 -3.36,-9.46 10.07,-14.19 v -6.31 l -4.03,-3.46 7.38,-7.89 v -6.62 l -1,-12.29 5.7,-14.5 7.38,-6.31 1.35,-9.77 -6.38,-0.32 5.71,-3.47 -0.68,-6.62 h 6.04 l 8.39,5.36 10.07,-5.36 1.68,-4.41 h 8.05 l -0.67,-4.1 7.38,5.67 1.68,10.41 11.41,-8.2 2.69,9.14 -4.7,19.55 2.35,0.95 -7.38,7.88 1.34,19.86 6.04,5.68 4.02,5.99 2.02,5.99 6.37,4.1 2.02,1.57 1.34,16.08 -4.36,5.99 -6.04,3.79 z" /><path
       id="path38"
       style="fill:#66ccff;fill-opacity:1;fill-rule:evenodd;stroke:none"
       d="m 211.86,185.03 -10.74,1.9 -8.39,10.09 -13.09,3.15 -5.04,2.52 -7.72,-5.04 -8.72,5.36 -1.68,3.47 2.01,11.03 -0.67,9.46 -1,3.79 7.38,0.94 5.03,-3.78 3.36,-11.98 10.74,-3.16 11.75,4.42 11.07,11.35 9.74,6.3 12.75,-1.89 14.77,1.58 8.05,6.31 -0.67,8.19 -7.72,7.26 0.67,10.4 11.08,1.26 3.36,6.31 h 4.02 l 8.73,-11.35 5.71,0.94 -0.68,9.78 12.76,19.55 2.01,12.93 7.72,2.52 9.06,-13.87 24.17,-3.47 7.72,-5.05 6.04,-19.55 10.74,-3.15 10.07,10.4 9.4,8.52 5.37,-9.15 9.73,-5.99 17.45,16.71 3.69,4.1 7.39,-3.78 14.43,5.05 11.08,0.31 13.42,-6.31 2.35,-12.29 -4.36,-8.2 -14.44,-7.57 -1.67,-11.98 -1.01,-6.94 -12.75,-1.26 -8.39,-5.99 -5.37,-6.62 -14.44,-0.32 -21.81,-2.84 -9.4,-18.28 -28.86,13.55 -10.41,-0.31 -7.38,-7.57 -6.72,-5.99 -10.4,-0.32 -5.03,-4.41 -5.04,-2.52 -7.05,3.15 -8.39,1.58 -9.06,-7.26 -0.67,-6.62 -6.04,1.58 -5.04,0.63 -1,-6.31 v -3.15 l -6.72,-0.63 -6.71,0.32 -7.72,1.89 -7.05,4.1 -4.02,2.83 -5.71,0.32 z" /><path
       id="path40"
       style="fill:none;stroke:#ffffff;stroke-width:0.47999999;stroke-linecap:butt;stroke-linejoin:round;stroke-miterlimit:10;stroke-dasharray:none;stroke-opacity:1"
       d="m 211.86,185.03 -10.74,1.9 -8.39,10.09 -13.09,3.15 -5.04,2.52 -7.72,-5.04 -8.72,5.36 -1.68,3.47 2.01,11.03 -0.67,9.46 -1,3.79 7.38,0.94 5.03,-3.78 3.36,-11.98 10.74,-3.16 11.75,4.42 11.07,11.35 9.74,6.3 12.75,-1.89 14.77,1.58 8.05,6.31 -0.67,8.19 -7.72,7.26 0.67,10.4 11.08,1.26 3.36,6.31 h 4.02 l 8.73,-11.35 5.71,0.94 -0.68,9.78 12.76,19.55 2.01,12.93 7.72,2.52 9.06,-13.87 24.17,-3.47 7.72,-5.05 6.04,-19.55 10.74,-3.15 10.07,10.4 9.4,8.52 5.37,-9.15 9.73,-5.99 17.45,16.71 3.69,4.1 7.39,-3.78 14.43,5.05 11.08,0.31 13.42,-6.31 2.35,-12.29 -4.36,-8.2 -14.44,-7.57 -1.67,-11.98 -1.01,-6.94 -12.75,-1.26 -8.39,-5.99 -5.37,-6.62 -14.44,-0.32 -21.81,-2.84 -9.4,-18.28 -28.86,13.55 -10.41,-0.31 -7.38,-7.57 -6.72,-5.99 -10.4,-0.32 -5.03,-4.41 -5.04,-2.52 -7.05,3.15 -8.39,1.58 -9.06,-7.26 -0.67,-6.62 -6.04,1.58 -5.04,0.63 -1,-6.31 v -3.15 l -6.72,-0.63 -6.71,0.32 -7.72,1.89 -7.05,4.1 -4.02,2.83 -5.71,0.32 z" /><path
       id="path42"
       style="fill:#66ccff;fill-opacity:1;fill-rule:evenodd;stroke:none"
       d="m 232.76,130.24 -2.69,13.88 -11.07,9.77 6.71,7.57 16.78,8.19 4.36,5.99 10.41,0.32 0.67,10.72 11.74,-3.78 v 7.25 l 8.73,6.62 15.77,-4.73 8.73,6.94 12.08,0.63 12.42,13.55 12.08,0.32 26.17,-13.56 6.72,-4.73 2.68,-13.24 1.34,-15.13 1.01,-7.57 -16.78,-13.24 2.35,-12.61 6.04,-6.94 -7.72,-4.73 -15.1,-1.89 -7.38,-6.62 8.05,-11.04 0.34,-8.512 -18.8,-0.946 -6.71,-2.837 -1.34,-5.045 -15.44,11.351 c -1.34,1.418 -2.35,2.364 -3.02,4.099 1.01,2.99 2.69,3.47 5.04,5.67 1,0.95 1,1.9 2.68,1.9 l 3.69,5.04 3.02,8.83 -2.01,8.2 -8.39,4.1 -10.74,4.73 -8.73,0.94 -7.71,0.32 -4.03,1.89 -3.02,2.84 -4.7,0.31 -6.38,-1.26 -5.03,-5.36 -1.01,-6.62 0.34,-6.31 0.67,-2.52 0.34,-5.36 -5.04,1.26 -5.03,3.79 -4.7,4.41 z" /><path
       id="path44"
       style="fill:none;stroke:#ffffff;stroke-width:0.47999999;stroke-linecap:butt;stroke-linejoin:round;stroke-miterlimit:10;stroke-dasharray:none;stroke-opacity:1"
       d="m 232.76,130.24 -2.69,13.88 -11.07,9.77 6.71,7.57 16.78,8.19 4.36,5.99 10.41,0.32 0.67,10.72 11.74,-3.78 v 7.25 l 8.73,6.62 15.77,-4.73 8.73,6.94 12.08,0.63 12.42,13.55 12.08,0.32 26.17,-13.56 6.72,-4.73 2.68,-13.24 1.34,-15.13 1.01,-7.57 -16.78,-13.24 2.35,-12.61 6.04,-6.94 -7.72,-4.73 -15.1,-1.89 -7.38,-6.62 8.05,-11.04 0.34,-8.512 -18.8,-0.946 -6.71,-2.837 -1.34,-5.045 -15.44,11.351 c -1.34,1.418 -2.35,2.364 -3.02,4.099 1.01,2.99 2.69,3.47 5.04,5.67 1,0.95 1,1.9 2.68,1.9 l 3.69,5.04 3.02,8.83 -2.01,8.2 -8.39,4.1 -10.74,4.73 -8.73,0.94 -7.71,0.32 -4.03,1.89 -3.02,2.84 -4.7,0.31 -6.38,-1.26 -5.03,-5.36 -1.01,-6.62 0.34,-6.31 0.67,-2.52 0.34,-5.36 -5.04,1.26 -5.03,3.79 -4.7,4.41 z" /><path
       id="path46"
       style="fill:#66ccff;fill-opacity:1;fill-rule:evenodd;stroke:none"
       d="m 247.86,35.956 4.7,4.097 5.03,2.206 4.36,-4.097 10.06,2.836 6.03,7.248 -7.37,10.714 3.35,7.564 5.7,2.205 7.38,1.261 9.39,-0.63 4.03,-3.152 1.34,-4.411 -1.68,-6.933 1.34,-4.097 9.73,-1.26 h 8.38 l 5.37,4.096 4.69,8.194 2.02,4.096 c 2.51,-0.472 4.19,-1.418 6.03,-3.151 0.51,-1.418 0.67,-2.521 1.68,-3.466 l 6.37,-1.261 4.7,3.151 0.67,4.412 1.67,3.782 3.02,2.521 2.35,4.727 -4.7,7.248 -5.7,3.781 -5.7,-1.576 -1.34,-4.096 -3.35,-0.946 h -7.72 -4.36 l -3.69,0.946 -3.69,2.521 -7.71,5.672 -4.69,3.782 -3.02,3.151 -2.69,3.469 -1,0.94 10.39,8.51 5.71,11.66 -2.35,6.93 -17.11,8.83 -16.76,0.63 -10.74,6.3 -10.39,-3.78 -1.68,-12.61 1.34,-11.34 -9.39,1.89 -6.37,6.3 -9.39,4.1 -3.69,-5.36 -0.67,-7.25 -8.72,-6.3 -1.01,-9.77 8.05,-7.561 -6.04,-5.672 -1.67,-8.509 1.67,-9.769 -4.02,-8.823 4.02,-9.139 0.68,-8.823 6.7,-2.521 12.75,-6.303 z" /><path
       id="path48"
       style="fill:none;stroke:#ffffff;stroke-width:0.47999999;stroke-linecap:butt;stroke-linejoin:round;stroke-miterlimit:10;stroke-dasharray:none;stroke-opacity:1"
       d="m 247.86,35.956 4.7,4.097 5.03,2.206 4.36,-4.097 10.06,2.836 6.03,7.248 -7.37,10.714 3.35,7.564 5.7,2.205 7.38,1.261 9.39,-0.63 4.03,-3.152 1.34,-4.411 -1.68,-6.933 1.34,-4.097 9.73,-1.26 h 8.38 l 5.37,4.096 4.69,8.194 2.02,4.096 c 2.51,-0.472 4.19,-1.418 6.03,-3.151 0.51,-1.418 0.67,-2.521 1.68,-3.466 l 6.37,-1.261 4.7,3.151 0.67,4.412 1.67,3.782 3.02,2.521 2.35,4.727 -4.7,7.248 -5.7,3.781 -5.7,-1.576 -1.34,-4.096 -3.35,-0.946 h -7.72 -4.36 l -3.69,0.946 -3.69,2.521 -7.71,5.672 -4.69,3.782 -3.02,3.151 -2.69,3.469 -1,0.94 10.39,8.51 5.71,11.66 -2.35,6.93 -17.11,8.83 -16.76,0.63 -10.74,6.3 -10.39,-3.78 -1.68,-12.61 1.34,-11.34 -9.39,1.89 -6.37,6.3 -9.39,4.1 -3.69,-5.36 -0.67,-7.25 -8.72,-6.3 -1.01,-9.77 8.05,-7.561 -6.04,-5.672 -1.67,-8.509 1.67,-9.769 -4.02,-8.823 4.02,-9.139 0.68,-8.823 6.7,-2.521 12.75,-6.303 z" /><path
       id="path50"
       style="fill:#66ccff;fill-opacity:1;fill-rule:evenodd;stroke:none"
       d="m 328.07,442.03 6.37,-5.04 4.7,-6.62 -2.35,-17.33 -9.39,-4.73 -4.7,-11.34 -7.71,-5.99 V 372.7 l 8.72,-9.77 -3.02,-0.94 4.36,-19.85 -3.35,-10.09 -11.41,8.51 -1.68,-10.08 -19.46,-12.92 -0.67,-3.79 3.02,-4.41 5.03,2.21 11.75,-14.81 24.15,-4.1 9.73,-5.99 4.03,-17.64 9.73,-2.52 -0.67,-0.95 18.11,18.28 h 5.04 l 3.35,-8.51 8.73,-5.67 21.8,21.11 6.38,-3.47 6.37,2.52 7.72,26.16 3.69,17.33 -8.39,10.4 -18.79,2.52 -3.69,5.36 v 14.49 l 9.06,2.53 7.72,5.04 -9.06,10.71 -5.37,7.88 8.72,4.1 0.34,12.6 -8.05,3.78 -10.4,-3.46 -8.39,2.83 -7.38,5.36 -3.36,7.25 -1,8.19 -2.35,10.4 -5.71,2.52 -5.36,-1.57 -2.69,4.41 -5.03,5.35 -6.04,2.52 -2.01,0.32 z" /><path
       id="path52"
       style="fill:none;stroke:#ffffff;stroke-width:0.47999999;stroke-linecap:butt;stroke-linejoin:round;stroke-miterlimit:10;stroke-dasharray:none;stroke-opacity:1"
       d="m 328.07,442.03 6.37,-5.04 4.7,-6.62 -2.35,-17.33 -9.39,-4.73 -4.7,-11.34 -7.71,-5.99 V 372.7 l 8.72,-9.77 -3.02,-0.94 4.36,-19.85 -3.35,-10.09 -11.41,8.51 -1.68,-10.08 -19.46,-12.92 -0.67,-3.79 3.02,-4.41 5.03,2.21 11.75,-14.81 24.15,-4.1 9.73,-5.99 4.03,-17.64 9.73,-2.52 -0.67,-0.95 18.11,18.28 h 5.04 l 3.35,-8.51 8.73,-5.67 21.8,21.11 6.38,-3.47 6.37,2.52 7.72,26.16 3.69,17.33 -8.39,10.4 -18.79,2.52 -3.69,5.36 v 14.49 l 9.06,2.53 7.72,5.04 -9.06,10.71 -5.37,7.88 8.72,4.1 0.34,12.6 -8.05,3.78 -10.4,-3.46 -8.39,2.83 -7.38,5.36 -3.36,7.25 -1,8.19 -2.35,10.4 -5.71,2.52 -5.36,-1.57 -2.69,4.41 -5.03,5.35 -6.04,2.52 -2.01,0.32 z" /><path
       id="path54"
       style="fill:#66ccff;fill-opacity:1;fill-rule:evenodd;stroke:none"
       d="m 351.12,458.4 7.38,-3.47 7.38,-9.45 5.36,1.89 7.05,-5.04 3.35,-19.85 3.02,-5.36 5.37,-2.83 4.36,-2.52 5.03,-1.26 9.05,4.09 9.73,-4.41 -0.67,-13.86 14.76,-1.89 6.03,6.62 13.76,3.15 7.04,8.5 -8.72,13.55 -4.7,11.34 -7.38,11.35 -5.7,6.93 -7.38,12.6 -6.7,9.77 v 8.82 l -6.71,8.19 -5.7,10.08 2.68,11.66 -4.03,9.14 -14.08,10.39 -9.06,3.47 -7.38,-6.3 v -12.6 l 1.68,-12.92 -2.01,-10.71 -2.35,-7.88 -3.35,-7.25 -4.36,-4.72 -7.05,-10.72 -5.7,-6.61 z" /><g
       id="g56"><g
         clip-path="url(#clipPath62)"
         id="g58"><path
           id="path64"
           style="fill:none;stroke:#ffffff;stroke-width:0.47999999;stroke-linecap:butt;stroke-linejoin:round;stroke-miterlimit:10;stroke-dasharray:none;stroke-opacity:1"
           d="m 351.12,458.4 7.38,-3.47 7.38,-9.45 5.36,1.89 7.05,-5.04 3.35,-19.85 3.02,-5.36 5.37,-2.83 4.36,-2.52 5.03,-1.26 9.05,4.09 9.73,-4.41 -0.67,-13.86 14.76,-1.89 6.03,6.62 13.76,3.15 7.04,8.5 -8.72,13.55 -4.7,11.34 -7.38,11.35 -5.7,6.93 -7.38,12.6 -6.7,9.77 v 8.82 l -6.71,8.19 -5.7,10.08 2.68,11.66 -4.03,9.14 -14.08,10.39 -9.06,3.47 -7.38,-6.3 v -12.6 l 1.68,-12.92 -2.01,-10.71 -2.35,-7.88 -3.35,-7.25 -4.36,-4.72 -7.05,-10.72 -5.7,-6.61 z" /></g></g><path
       id="path66"
       style="fill:#66ccff;fill-opacity:1;fill-rule:evenodd;stroke:none"
       d="m 458.27,408.6 -5.38,-5.06 -14.8,-4.11 -5.39,-6.33 -16.15,2.21 -8.07,-3.79 15.48,-17.72 14.13,1.9 18.5,6.96 6.73,3.16 1.68,8.54 -6.73,10.13 z" /><path
       id="path68"
       style="fill:none;stroke:#ffffff;stroke-width:0.47999999;stroke-linecap:butt;stroke-linejoin:round;stroke-miterlimit:10;stroke-dasharray:none;stroke-opacity:1"
       d="m 458.27,408.6 -5.38,-5.06 -14.8,-4.11 -5.39,-6.33 -16.15,2.21 -8.07,-3.79 15.48,-17.72 14.13,1.9 18.5,6.96 6.73,3.16 1.68,8.54 -6.73,10.13 z" /><path
       id="path70"
       style="fill:#d9d9d9;fill-opacity:1;fill-rule:evenodd;stroke:none"
       d="m 465,385.8 c -0.18,-0.28 -0.36,-0.84 -0.36,-0.84 0,0 0.18,0.56 0.36,0.84 z" /><path
       id="path72"
       style="fill:none;stroke:#ffffff;stroke-width:0.47999999;stroke-linecap:butt;stroke-linejoin:round;stroke-miterlimit:10;stroke-dasharray:none;stroke-opacity:1"
       d="m 465,385.8 c -0.18,-0.28 -0.36,-0.84 -0.36,-0.84 0,0 0.18,0.56 0.36,0.84 z" /><path
       id="path74"
       style="fill:#66ccff;fill-opacity:1;fill-rule:evenodd;stroke:none"
       d="m 465.29,385.32 c 0,-0.32 0.5,-3.94 0.67,-4.42 0.17,-0.63 1.68,-1.26 1.68,-1.26 l 6.04,-5.99 3.69,-9.47 7.05,-5.36 3.02,-10.41 9.39,-5.36 8.06,-8.83 7.72,-14.83 2.68,-11.67 10.07,-7.57 -22.82,-5.05 -11.07,-4.1 -13.43,-0.63 -7.38,-2.52 -10.41,-7.89 -1,5.36 -13.76,5.37 -18.79,-0.95 11.41,44.79 -9.07,10.41 -19.46,2.84 -2.68,4.73 -0.34,12.62 17.12,7.26 13.08,1.89 z" /><path
       id="path76"
       style="fill:none;stroke:#ffffff;stroke-width:0.47999999;stroke-linecap:butt;stroke-linejoin:round;stroke-miterlimit:10;stroke-dasharray:none;stroke-opacity:1"
       d="m 465.29,385.32 c 0,-0.32 0.5,-3.94 0.67,-4.42 0.17,-0.63 1.68,-1.26 1.68,-1.26 l 6.04,-5.99 3.69,-9.47 7.05,-5.36 3.02,-10.41 9.39,-5.36 8.06,-8.83 7.72,-14.83 2.68,-11.67 10.07,-7.57 -22.82,-5.05 -11.07,-4.1 -13.43,-0.63 -7.38,-2.52 -10.41,-7.89 -1,5.36 -13.76,5.37 -18.79,-0.95 11.41,44.79 -9.07,10.41 -19.46,2.84 -2.68,4.73 -0.34,12.62 17.12,7.26 13.08,1.89 z" /><g
       id="g78"><g
         clip-path="url(#clipPath84)"
         id="g80"><path
           id="path86"
           style="fill:#66ccff;fill-opacity:1;fill-rule:evenodd;stroke:none"
           d="m 409.9,38.754 c -1.17,1.103 -2.35,2.048 -3.69,2.836 -0.67,0.945 -0.84,1.26 -2.01,1.26 l -7.39,-3.781 -12.75,-0.63 -10.4,-4.411 -3.36,10.083 5.04,5.986 7.72,7.562 -1.01,4.726 -16.44,-0.945 -5.37,4.411 -5.04,5.356 5.37,5.041 -8.39,11.658 -4.69,0.945 -7.72,-3.15 -1.01,-2.521 -16.44,-0.315 1.34,6.301 7.38,2.521 18.46,0.63 -0.34,10.083 -8.72,9.45 6.71,6.3 13.42,1.58 11.41,5.67 8.39,-5.04 6.38,-10.08 0.67,-9.46 6.71,-12.284 11.07,-0.945 2.02,7.877 8.05,7.562 12.42,-2.84 1.34,-9.448 4.7,-5.672 21.81,-2.835 7.38,-7.247 -0.67,-7.877 6.71,-6.932 13.42,-8.507 17.45,-0.315 10.07,3.151 8.05,0.945 10.74,-5.986 11.41,-3.151 15.1,-3.466 -0.67,-9.452 -6.04,-7.562 11.07,-16.3837 -15.44,-5.3563 -11.07,6.302 -3.35,7.246 -8.39,0.63 -6.04,-4.411 2.01,-7.2464 2.68,-5.3563 C 510.07,0.63019 516.44,0.94525 501.17,0.94525 487.08,1.4178 495.64,0 490.77,1.8905 c -1.85,0.7877 -5.7,1.2603 -5.7,1.2603 l -14.43,7.5622 -8.39,6.931 -9.73,2.521 -10.74,4.411 -8.39,4.411 -9.73,-2.206 -10.07,-0.315 -3.35,4.096 z" /></g></g><g
       id="g88"><g
         clip-path="url(#clipPath94)"
         id="g90"><path
           id="path96"
           style="fill:none;stroke:#ffffff;stroke-width:0.47999999;stroke-linecap:butt;stroke-linejoin:round;stroke-miterlimit:10;stroke-dasharray:none;stroke-opacity:1"
           d="m 409.9,38.754 c -1.17,1.103 -2.35,2.048 -3.69,2.836 -0.67,0.945 -0.84,1.26 -2.01,1.26 l -7.39,-3.781 -12.75,-0.63 -10.4,-4.411 -3.36,10.083 5.04,5.986 7.72,7.562 -1.01,4.726 -16.44,-0.945 -5.37,4.411 -5.04,5.356 5.37,5.041 -8.39,11.658 -4.69,0.945 -7.72,-3.15 -1.01,-2.521 -16.44,-0.315 1.34,6.301 7.38,2.521 18.46,0.63 -0.34,10.083 -8.72,9.45 6.71,6.3 13.42,1.58 11.41,5.67 8.39,-5.04 6.38,-10.08 0.67,-9.46 6.71,-12.284 11.07,-0.945 2.02,7.877 8.05,7.562 12.42,-2.84 1.34,-9.448 4.7,-5.672 21.81,-2.835 7.38,-7.247 -0.67,-7.877 6.71,-6.932 13.42,-8.507 17.45,-0.315 10.07,3.151 8.05,0.945 10.74,-5.986 11.41,-3.151 15.1,-3.466 -0.67,-9.452 -6.04,-7.562 11.07,-16.3837 -15.44,-5.3563 -11.07,6.302 -3.35,7.246 -8.39,0.63 -6.04,-4.411 2.01,-7.2464 2.68,-5.3563 C 510.07,0.63019 516.44,0.94525 501.17,0.94525 487.08,1.4178 495.64,0 490.77,1.8905 c -1.85,0.7877 -5.7,1.2603 -5.7,1.2603 l -14.43,7.5622 -8.39,6.931 -9.73,2.521 -10.74,4.411 -8.39,4.411 -9.73,-2.206 -10.07,-0.315 -3.35,4.096 z" /></g></g><path
       id="path98"
       style="fill:#66ccff;fill-opacity:1;fill-rule:evenodd;stroke:none"
       d="m 485.45,179.1 c -2.52,-2.36 -4.53,-5.36 -8.39,-5.36 l -4.37,5.68 -9.06,-2.84 -2.01,-8.51 -5.04,-14.19 -7.38,-10.72 -9.07,-3.46 -1.68,-9.46 5.04,-9.14 3.69,-5.68 2.02,-9.46 6.71,-8.193 6.38,-6.935 -1.34,-6.305 -4.37,-2.207 -3.36,1.261 -19.13,3.153 -4.7,5.044 -1.01,10.092 -13.76,2.83 -8.05,-7.878 -2.35,-8.197 -10.41,1.261 -5.71,10.714 -1.34,13.25 -8.06,10.4 -14.43,9.14 -2.35,11.98 17.12,14.19 -2.35,24.59 -3.69,12.29 -4.7,3.79 8.73,18.28 21.48,2.52 15.44,1.58 13.43,12.61 h 13.76 l 2.69,19.86 15.1,7.88 1.01,5.36 8.73,-14.19 7.38,-5.99 11.41,1.9 10.07,-1.27 9.4,-6.3 5.71,-11.03 -2.69,-12.93 v -11.03 l -2.35,-5.99 -4.36,-1.26 -1.34,-4.42 -8.06,-3.78 -5.7,-6.31 z" /><path
       id="path100"
       style="fill:none;stroke:#ffffff;stroke-width:0.47999999;stroke-linecap:butt;stroke-linejoin:round;stroke-miterlimit:10;stroke-dasharray:none;stroke-opacity:1"
       d="m 485.45,179.1 c -2.52,-2.36 -4.53,-5.36 -8.39,-5.36 l -4.37,5.68 -9.06,-2.84 -2.01,-8.51 -5.04,-14.19 -7.38,-10.72 -9.07,-3.46 -1.68,-9.46 5.04,-9.14 3.69,-5.68 2.02,-9.46 6.71,-8.193 6.38,-6.935 -1.34,-6.305 -4.37,-2.207 -3.36,1.261 -19.13,3.153 -4.7,5.044 -1.01,10.092 -13.76,2.83 -8.05,-7.878 -2.35,-8.197 -10.41,1.261 -5.71,10.714 -1.34,13.25 -8.06,10.4 -14.43,9.14 -2.35,11.98 17.12,14.19 -2.35,24.59 -3.69,12.29 -4.7,3.79 8.73,18.28 21.48,2.52 15.44,1.58 13.43,12.61 h 13.76 l 2.69,19.86 15.1,7.88 1.01,5.36 8.73,-14.19 7.38,-5.99 11.41,1.9 10.07,-1.27 9.4,-6.3 5.71,-11.03 -2.69,-12.93 v -11.03 l -2.35,-5.99 -4.36,-1.26 -1.34,-4.42 -8.06,-3.78 -5.7,-6.31 z" /><path
       id="path102"
       style="fill:#66ccff;fill-opacity:1;fill-rule:evenodd;stroke:none"
       d="m 527.37,299.16 c -2.35,-1.42 -8.56,-0.63 -11.07,-0.63 l -19.12,-5.99 -6.38,-4.1 h -11.74 l -7.04,-1.27 -10.07,-8.2 -0.67,-12.3 8.72,-13.25 6.04,-4.1 12.08,1.27 9.39,0.31 6.38,-4.42 6.71,-7.57 4.36,-9.77 -4.03,-12.94 v -8.83 l -3.35,-8.2 -3.36,-1.26 -3.02,-4.73 -6.71,-3.16 -5.37,-7.88 -4.36,-4.73 11.75,-2.84 5.7,-4.42 13.42,3.79 7.04,-4.42 4.7,-5.36 h 9.73 l 3.02,7.25 -1.68,8.52 4.03,4.1 7.38,-0.94 7.71,-5.37 5.71,-2.2 13.42,-0.64 h 12.41 l 7.04,4.42 2.35,8.2 2.35,11.04 -2.01,7.26 -4.03,6.3 0.34,7.57 -1.68,8.52 -8.72,8.52 -10.74,5.36 -8.39,7.88 -8.72,7.89 -8.72,6.94 -5.7,3.78 -3.36,5.37 -1,7.57 -3.7,6.62 -5.7,2.52 -1.34,3.79 z" /><path
       id="path104"
       style="fill:none;stroke:#ffffff;stroke-width:0.47999999;stroke-linecap:butt;stroke-linejoin:round;stroke-miterlimit:10;stroke-dasharray:none;stroke-opacity:1"
       d="m 527.37,299.16 c -2.35,-1.42 -8.56,-0.63 -11.07,-0.63 l -19.12,-5.99 -6.38,-4.1 h -11.74 l -7.04,-1.27 -10.07,-8.2 -0.67,-12.3 8.72,-13.25 6.04,-4.1 12.08,1.27 9.39,0.31 6.38,-4.42 6.71,-7.57 4.36,-9.77 -4.03,-12.94 v -8.83 l -3.35,-8.2 -3.36,-1.26 -3.02,-4.73 -6.71,-3.16 -5.37,-7.88 -4.36,-4.73 11.75,-2.84 5.7,-4.42 13.42,3.79 7.04,-4.42 4.7,-5.36 h 9.73 l 3.02,7.25 -1.68,8.52 4.03,4.1 7.38,-0.94 7.71,-5.37 5.71,-2.2 13.42,-0.64 h 12.41 l 7.04,4.42 2.35,8.2 2.35,11.04 -2.01,7.26 -4.03,6.3 0.34,7.57 -1.68,8.52 -8.72,8.52 -10.74,5.36 -8.39,7.88 -8.72,7.89 -8.72,6.94 -5.7,3.78 -3.36,5.37 -1,7.57 -3.7,6.62 -5.7,2.52 -1.34,3.79 z" /><path
       id="path106"
       style="fill:#66ccff;fill-opacity:1;fill-rule:evenodd;stroke:none"
       d="m 555.63,45.038 c -1.35,-0.158 -0.68,-0.158 -2.02,-0.158 l -9.56,1.103 -13.76,3.783 -12.92,7.093 -9.06,-1.891 -8.73,-2.837 -16.61,0.788 -12.92,7.565 -6.71,7.251 0.17,8.511 -5.71,5.517 3.69,1.419 1.85,8.511 -13.93,15.607 -1.68,10.56 -8.05,12.29 1.51,8.04 9.23,4.26 8.56,13.24 5.53,20.17 8.06,2.37 3.86,-5.2 9.73,3.46 10.4,-3.31 5.71,-4.41 12.92,4.26 6.54,-4.58 4.7,-5.35 h 11.91 l 3.53,8.19 -2.02,8.36 3.19,2.99 6.38,-0.95 10.57,-5.83 11.24,-3.78 5.37,-8.83 -0.84,-8.67 -3.52,-6.62 -5.71,-4.09 -8.39,-2.84 -6.04,-4.26 -6.54,-6.3 -4.53,-8.04 -1.01,-7.57 v -7.88 l 0.84,-8.194 0.17,-10.718 4.02,-8.039 5.37,-4.886 5.21,-5.989 0.83,-4.256 v -6.305 l 0.51,-5.517 -0.34,-5.201 z" /><path
       id="path108"
       style="fill:none;stroke:#ffffff;stroke-width:0.47999999;stroke-linecap:butt;stroke-linejoin:round;stroke-miterlimit:10;stroke-dasharray:none;stroke-opacity:1"
       d="m 555.63,45.038 c -1.35,-0.158 -0.68,-0.158 -2.02,-0.158 l -9.56,1.103 -13.76,3.783 -12.92,7.093 -9.06,-1.891 -8.73,-2.837 -16.61,0.788 -12.92,7.565 -6.71,7.251 0.17,8.511 -5.71,5.517 3.69,1.419 1.85,8.511 -13.93,15.607 -1.68,10.56 -8.05,12.29 1.51,8.04 9.23,4.26 8.56,13.24 5.53,20.17 8.06,2.37 3.86,-5.2 9.73,3.46 10.4,-3.31 5.71,-4.41 12.92,4.26 6.54,-4.58 4.7,-5.35 h 11.91 l 3.53,8.19 -2.02,8.36 3.19,2.99 6.38,-0.95 10.57,-5.83 11.24,-3.78 5.37,-8.83 -0.84,-8.67 -3.52,-6.62 -5.71,-4.09 -8.39,-2.84 -6.04,-4.26 -6.54,-6.3 -4.53,-8.04 -1.01,-7.57 v -7.88 l 0.84,-8.194 0.17,-10.718 4.02,-8.039 5.37,-4.886 5.21,-5.989 0.83,-4.256 v -6.305 l 0.51,-5.517 -0.34,-5.201 z" /><path
       id="path110"
       style="fill:#66ccff;fill-opacity:1;fill-rule:evenodd;stroke:none"
       d="m 568.98,143.28 10.05,-4.73 8.54,-3.79 9.55,9.47 17.25,0.16 14.07,3.63 -1.67,14.2 -12.4,11.84 1.01,8.68 -13.57,16.1 -4.02,-20.36 -9.55,-5.21 -21.6,1.42 6.53,-2.05 4.52,-9.79 -1,-10.57 -3.52,-4.1 z" /><path
       id="path112"
       style="fill:none;stroke:#ffffff;stroke-width:0.47999999;stroke-linecap:butt;stroke-linejoin:round;stroke-miterlimit:10;stroke-dasharray:none;stroke-opacity:1"
       d="m 568.98,143.28 10.05,-4.73 8.54,-3.79 9.55,9.47 17.25,0.16 14.07,3.63 -1.67,14.2 -12.4,11.84 1.01,8.68 -13.57,16.1 -4.02,-20.36 -9.55,-5.21 -21.6,1.42 6.53,-2.05 4.52,-9.79 -1,-10.57 -3.52,-4.1 z" /><path
       id="path114"
       style="fill:#66ccff;fill-opacity:1;fill-rule:evenodd;stroke:none"
       d="m 604.57,15.181 c -0.66,-1.105 -0.5,-1.894 -1.84,-2.367 -0.83,0.157 -1.84,0 -2.67,0.473 -2.35,1.42 0.83,0.316 -1.01,0.947 l -9.54,2.84 -9.54,-2.998 -9.04,1.105 -3.35,3.313 -6.19,-0.473 -2.34,-7.101 -9.21,14.991 6.19,8.047 1.84,35.189 5.03,20.198 6.52,7.732 10.21,5.523 8.37,-2.21 -2.51,-14.674 -2.84,-12.466 -2.68,-6.47 8.7,-11.992 c 2.85,-4.261 4.02,-5.839 8.04,-8.364 l 8.87,-1.893 6.02,-2.841 0.17,-5.207 -5.52,-4.418 5.86,-6.628 3.01,-3.156 -4.52,-1.42 -5.86,-0.947 z" /><path
       id="path116"
       style="fill:none;stroke:#ffffff;stroke-width:0.47999999;stroke-linecap:butt;stroke-linejoin:round;stroke-miterlimit:10;stroke-dasharray:none;stroke-opacity:1"
       d="m 604.57,15.181 c -0.66,-1.105 -0.5,-1.894 -1.84,-2.367 -0.83,0.157 -1.84,0 -2.67,0.473 -2.35,1.42 0.83,0.316 -1.01,0.947 l -9.54,2.84 -9.54,-2.998 -9.04,1.105 -3.35,3.313 -6.19,-0.473 -2.34,-7.101 -9.21,14.991 6.19,8.047 1.84,35.189 5.03,20.198 6.52,7.732 10.21,5.523 8.37,-2.21 -2.51,-14.674 -2.84,-12.466 -2.68,-6.47 8.7,-11.992 c 2.85,-4.261 4.02,-5.839 8.04,-8.364 l 8.87,-1.893 6.02,-2.841 0.17,-5.207 -5.52,-4.418 5.86,-6.628 3.01,-3.156 -4.52,-1.42 -5.86,-0.947 z" /><path
       id="path118"
       style="fill:#66ccff;fill-opacity:1;fill-rule:evenodd;stroke:none"
       d="m 652.5,16.985 2.52,-8.3611 -2.85,-3.9438 h -9.56 l -9.23,3.9438 -1.34,8.0451 -8.72,4.26 -6.54,1.262 -9.56,10.096 6.04,3.786 -0.33,6.468 -6.71,2.998 -10.57,2.366 -14.92,19.72 3.02,4.417 5.36,29.818 -9.89,1.89 -10.06,-5.363 -6.71,-8.361 -6.04,-22.244 -2.01,4.733 -6.54,6.941 -5.87,9.15 -0.67,14.194 v 12.31 l 1.17,8.99 5.03,6.63 5.37,3.63 12.24,9.15 23.65,-10.42 9.39,10.73 h 16.27 l 15.59,4.26 10.06,-18.93 2.52,-4.26 8.38,-0.79 5.03,-4.89 4.7,-9.46 0.33,-9.31 c 1.01,-1.738 1.68,-3.788 3.02,-5.208 0.67,-0.789 1.68,-1.262 2.52,-1.893 0.33,-0.316 1,-0.947 1,-0.947 l 9.23,-7.257 8.05,-6.625 -0.17,-11.832 -1.01,-14.671 3.19,-8.046 v -6.626 l -7.04,-2.839 -9.23,-1.893 -9.39,-4.575 -7.04,-6.626 z" /><path
       id="path120"
       style="fill:none;stroke:#ffffff;stroke-width:0.47999999;stroke-linecap:butt;stroke-linejoin:round;stroke-miterlimit:10;stroke-dasharray:none;stroke-opacity:1"
       d="m 652.5,16.985 2.52,-8.3611 -2.85,-3.9438 h -9.56 l -9.23,3.9438 -1.34,8.0451 -8.72,4.26 -6.54,1.262 -9.56,10.096 6.04,3.786 -0.33,6.468 -6.71,2.998 -10.57,2.366 -14.92,19.72 3.02,4.417 5.36,29.818 -9.89,1.89 -10.06,-5.363 -6.71,-8.361 -6.04,-22.244 -2.01,4.733 -6.54,6.941 -5.87,9.15 -0.67,14.194 v 12.31 l 1.17,8.99 5.03,6.63 5.37,3.63 12.24,9.15 23.65,-10.42 9.39,10.73 h 16.27 l 15.59,4.26 10.06,-18.93 2.52,-4.26 8.38,-0.79 5.03,-4.89 4.7,-9.46 0.33,-9.31 c 1.01,-1.738 1.68,-3.788 3.02,-5.208 0.67,-0.789 1.68,-1.262 2.52,-1.893 0.33,-0.316 1,-0.947 1,-0.947 l 9.23,-7.257 8.05,-6.625 -0.17,-11.832 -1.01,-14.671 3.19,-8.046 v -6.626 l -7.04,-2.839 -9.23,-1.893 -9.39,-4.575 -7.04,-6.626 z" /><path
       id="path122"
       style="fill:#000000;fill-opacity:1;fill-rule:evenodd;stroke:none"
       d="m 414.79,448.46 c -1.49,0 -2.63,-0.22 -3.42,-0.68 -0.79,-0.45 -1.18,-1.03 -1.18,-1.72 0,-0.71 0.39,-1.29 1.18,-1.74 0.8,-0.45 1.94,-0.67 3.42,-0.67 1.48,0 2.62,0.22 3.42,0.67 0.79,0.45 1.19,1.02 1.19,1.74 0,0.7 -0.39,1.28 -1.18,1.73 -0.79,0.45 -1.93,0.67 -3.43,0.67 z m 13.07,0.54 h 1.46 v -4.75 H 440 v -1.32 h -12.14 z m -13.07,0.71 c 1.98,0 3.5,-0.34 4.57,-1.02 1.07,-0.67 1.61,-1.55 1.61,-2.63 0,-1.09 -0.54,-1.97 -1.61,-2.65 -1.07,-0.68 -2.6,-1.02 -4.57,-1.02 -1.97,0 -3.49,0.34 -4.56,1.02 -1.07,0.68 -1.61,1.56 -1.61,2.65 0,1.08 0.53,1.96 1.6,2.63 1.07,0.68 2.6,1.02 4.57,1.02 z m -22.98,3.24 h 1.46 v -6.15 h 9.1 v -1.32 h -17.52 v 1.32 h 6.96 z m -4.41,6.26 h 12.1 v -4.3 c 0,-1.9 -0.13,-3.85 -0.38,-5.85 l -1.42,0.13 c 0.23,2.08 0.34,4 0.34,5.75 v 2.95 H 387.4 Z m 40.46,0.96 h 11.78 c 0,-2.89 -0.07,-5.28 -0.2,-7.16 h 3.01 v -1.32 h -7.92 v -5.62 h -1.46 v 5.62 h -8.14 v 1.32 h 13.08 c 0.12,1.09 0.17,3.04 0.17,5.85 h -10.32 z m -17.94,0.2 h 1.42 v -2.01 c 0,-1.25 0.47,-2.46 1.42,-3.62 0.94,-1.15 2.04,-1.99 3.3,-2.51 l -0.99,-1.07 c -0.86,0.47 -1.71,1.12 -2.58,1.95 -0.86,0.84 -1.46,1.62 -1.81,2.35 -0.37,-0.83 -0.99,-1.71 -1.85,-2.64 -0.87,-0.93 -1.75,-1.64 -2.64,-2.14 l -1.03,1.01 c 1.35,0.65 2.48,1.58 3.39,2.81 0.91,1.23 1.37,2.51 1.37,3.86 z m 9.2,0.62 h 1.47 v -10.9 h -1.47 v 5.62 h -4.4 v 1.31 h 4.4 z" /><path
       id="path124"
       style="fill:#000000;fill-opacity:1;fill-rule:evenodd;stroke:none"
       d="m 282.1,402.22 c -1.46,0 -2.58,-0.22 -3.35,-0.67 -0.77,-0.45 -1.16,-1.05 -1.16,-1.81 0,-0.77 0.39,-1.38 1.15,-1.83 0.77,-0.45 1.89,-0.68 3.36,-0.68 1.48,0 2.61,0.23 3.38,0.68 0.78,0.45 1.16,1.06 1.16,1.83 0,0.75 -0.38,1.36 -1.16,1.81 -0.78,0.45 -1.9,0.67 -3.38,0.67 z m 34.03,0.44 h 1.46 v -4.74 h 10.68 v -1.33 h -12.14 z m -34.03,0.8 c 1.99,0 3.5,-0.33 4.53,-1 1.04,-0.68 1.56,-1.58 1.56,-2.72 0,-1.15 -0.52,-2.06 -1.56,-2.73 -1.04,-0.68 -2.55,-1.02 -4.53,-1.02 -1.95,0 -3.46,0.34 -4.5,1.01 -1.05,0.68 -1.57,1.59 -1.57,2.74 0,1.14 0.52,2.04 1.56,2.72 1.05,0.67 2.55,1 4.51,1 z m -3.51,9.39 c -0.99,0 -1.79,-0.31 -2.41,-0.92 -0.61,-0.61 -0.92,-1.39 -0.92,-2.35 0,-0.97 0.31,-1.76 0.92,-2.37 0.62,-0.61 1.42,-0.92 2.41,-0.92 1,0 1.81,0.31 2.42,0.92 0.62,0.61 0.93,1.4 0.93,2.37 0,0.94 -0.31,1.73 -0.93,2.34 -0.61,0.62 -1.42,0.93 -2.42,0.93 z m 37.54,0.98 h 11.78 c 0,-2.89 -0.07,-5.28 -0.2,-7.16 h 3.01 v -1.32 h -7.92 v -5.61 h -1.46 v 5.61 h -8.14 v 1.32 h 13.08 c 0.11,1.09 0.17,3.04 0.17,5.85 h -10.32 z m -20.12,0 h 11.96 c 0,-3.23 -0.1,-5.9 -0.28,-8 h 2.99 v -1.32 h -8.2 v -8.74 h -1.46 v 8.74 h -7.86 v 1.32 h 13.12 c 0.15,1.55 0.23,3.78 0.23,6.69 h -10.5 z m -17.42,0.26 c 1.42,0 2.58,-0.43 3.47,-1.28 0.9,-0.85 1.34,-1.93 1.34,-3.23 0,-1.32 -0.44,-2.4 -1.34,-3.25 -0.9,-0.86 -2.05,-1.28 -3.47,-1.28 -1.41,0 -2.56,0.43 -3.45,1.29 -0.89,0.85 -1.33,1.93 -1.33,3.24 0,1.3 0.44,2.37 1.32,3.23 0.89,0.85 2.04,1.28 3.46,1.28 z m 7.86,0.56 h 1.46 v -2.81 h 2.84 v -1.28 h -2.84 v -2.95 h 2.84 v -1.28 h -2.84 v -2.58 h -1.46 z" /><path
       id="path126"
       style="fill:#000000;fill-opacity:1;fill-rule:evenodd;stroke:none"
       d="m 420.99,383.44 h 12.14 v -6.52 h -1.46 v 5.22 h -10.68 z m 25.55,2.16 h 1.49 v -4.4 h 8.03 v -1.3 h -17.52 v 1.3 h 8 z m -20.02,4.06 h 1.49 v -2.76 h 8.01 v -1.32 H 418.5 v 1.32 h 8.02 z m 37.13,4.83 h 1.45 v -3.02 c 0,-1.63 0.46,-3.23 1.37,-4.79 0.91,-1.56 2.13,-2.84 3.68,-3.83 l -1.03,-1.15 c -1.05,0.81 -2.04,1.83 -2.97,3.05 -0.92,1.22 -1.51,2.28 -1.75,3.16 -0.3,-1.01 -0.9,-2.14 -1.79,-3.37 -0.9,-1.23 -1.87,-2.26 -2.92,-3.07 l -1.13,0.97 c 1.56,1.05 2.79,2.38 3.71,4 0.92,1.62 1.38,3.28 1.38,4.96 z m -17.07,0.96 h 1.48 v -2.14 h 6.05 V 392 h -6.06 c 0.08,-1.16 0.81,-2.27 2.2,-3.34 1.38,-1.06 3.04,-1.76 4.99,-2.09 l -0.94,-1.28 c -1.41,0.35 -2.8,0.97 -4.17,1.87 -1.37,0.89 -2.32,1.8 -2.85,2.72 -0.57,-0.95 -1.5,-1.86 -2.78,-2.72 -1.28,-0.86 -2.64,-1.49 -4.1,-1.89 l -1.01,1.27 c 1.83,0.26 3.45,0.95 4.87,2.05 1.42,1.1 2.18,2.24 2.28,3.41 h -6.05 v 1.31 h 6.09 z m -20.04,0 h 1.45 v -0.64 c 0,-0.93 0.69,-1.9 2.08,-2.92 1.4,-1.01 3.07,-1.6 5.03,-1.77 l -0.76,-1.16 c -1.6,0.25 -3.04,0.76 -4.32,1.52 -1.29,0.76 -2.2,1.54 -2.74,2.35 -0.46,-0.73 -1.36,-1.49 -2.71,-2.28 -1.35,-0.79 -2.78,-1.3 -4.29,-1.53 l -0.86,1.18 c 1.97,0.17 3.65,0.74 5.04,1.73 1.38,0.98 2.08,1.94 2.08,2.88 z m 46.27,0.34 h 1.47 v -18.87 h -1.47 z" /><path
       id="path128"
       style="fill:#000000;fill-opacity:1;fill-rule:evenodd;stroke:none"
       d="m 479.3,327.04 c -1.47,0 -2.58,-0.23 -3.35,-0.67 -0.77,-0.45 -1.16,-1.06 -1.16,-1.82 0,-0.77 0.38,-1.38 1.15,-1.83 0.77,-0.45 1.89,-0.67 3.36,-0.67 1.48,0 2.61,0.22 3.38,0.68 0.78,0.45 1.16,1.06 1.16,1.82 0,0.76 -0.39,1.36 -1.16,1.81 -0.78,0.45 -1.9,0.68 -3.38,0.68 z m -20.04,0 c -1.47,0 -2.58,-0.23 -3.35,-0.67 -0.77,-0.45 -1.16,-1.06 -1.16,-1.82 0,-0.77 0.38,-1.38 1.15,-1.83 0.77,-0.45 1.89,-0.67 3.36,-0.67 1.48,0 2.61,0.22 3.38,0.68 0.78,0.45 1.16,1.06 1.16,1.82 0,0.76 -0.39,1.36 -1.16,1.81 -0.78,0.45 -1.9,0.68 -3.38,0.68 z m 34.03,0.44 h 1.46 v -4.75 h 10.68 v -1.32 h -12.14 z m -13.99,0.8 c 1.99,0 3.5,-0.34 4.53,-1.01 1.04,-0.67 1.56,-1.58 1.56,-2.72 0,-1.14 -0.52,-2.05 -1.56,-2.73 -1.04,-0.68 -2.55,-1.02 -4.53,-1.02 -1.95,0 -3.46,0.34 -4.5,1.02 -1.05,0.67 -1.57,1.58 -1.57,2.73 0,1.14 0.52,2.05 1.56,2.72 1.05,0.67 2.55,1.01 4.51,1.01 z m -20.04,0 c 1.99,0 3.5,-0.34 4.53,-1.01 1.04,-0.67 1.56,-1.58 1.56,-2.72 0,-1.14 -0.52,-2.05 -1.56,-2.73 -1.04,-0.68 -2.55,-1.02 -4.53,-1.02 -1.95,0 -3.46,0.34 -4.5,1.02 -1.05,0.67 -1.57,1.58 -1.57,2.73 0,1.14 0.52,2.05 1.56,2.72 1.05,0.67 2.55,1.01 4.51,1.01 z m 16.53,9.38 c -0.99,0 -1.79,-0.3 -2.41,-0.91 -0.61,-0.61 -0.92,-1.4 -0.92,-2.35 0,-0.98 0.31,-1.77 0.92,-2.38 0.62,-0.61 1.42,-0.91 2.41,-0.91 1,0 1.8,0.3 2.42,0.92 0.62,0.61 0.93,1.4 0.93,2.37 0,0.94 -0.31,1.72 -0.93,2.34 -0.62,0.62 -1.42,0.92 -2.42,0.92 z m -20.04,0 c -0.99,0 -1.79,-0.3 -2.41,-0.91 -0.61,-0.61 -0.92,-1.4 -0.92,-2.35 0,-0.98 0.31,-1.77 0.92,-2.38 0.62,-0.61 1.42,-0.91 2.41,-0.91 1,0 1.8,0.3 2.42,0.92 0.62,0.61 0.93,1.4 0.93,2.37 0,0.94 -0.31,1.72 -0.93,2.34 -0.62,0.62 -1.42,0.92 -2.42,0.92 z m 37.54,0.98 h 11.78 c 0,-2.89 -0.07,-5.27 -0.2,-7.15 h 3.01 v -1.32 h -7.92 v -5.62 h -1.46 v 5.62 h -8.14 v 1.32 h 13.08 c 0.11,1.08 0.17,3.03 0.17,5.85 h -10.32 z m -17.5,0.27 c 1.42,0 2.58,-0.43 3.47,-1.28 0.9,-0.85 1.34,-1.93 1.34,-3.23 0,-1.32 -0.44,-2.41 -1.34,-3.26 -0.9,-0.85 -2.05,-1.28 -3.47,-1.28 -1.41,0 -2.56,0.43 -3.45,1.29 -0.89,0.86 -1.34,1.94 -1.34,3.25 0,1.29 0.45,2.37 1.33,3.22 0.88,0.86 2.04,1.29 3.46,1.29 z m -20.04,0 c 1.42,0 2.58,-0.43 3.47,-1.28 0.9,-0.85 1.34,-1.93 1.34,-3.23 0,-1.32 -0.44,-2.41 -1.34,-3.26 -0.9,-0.85 -2.05,-1.28 -3.47,-1.28 -1.41,0 -2.56,0.43 -3.45,1.29 -0.89,0.86 -1.34,1.94 -1.34,3.25 0,1.29 0.45,2.37 1.33,3.22 0.88,0.86 2.04,1.29 3.46,1.29 z m 27.9,0.55 h 1.46 v -2.8 h 2.84 v -1.29 h -2.84 v -2.94 h 2.84 v -1.28 h -2.84 v -2.59 h -1.46 z m -20.04,0 h 1.46 v -2.8 h 2.84 v -1.29 h -2.84 v -2.94 h 2.84 v -1.28 h -2.84 v -2.59 h -1.46 z" /><path
       id="path130"
       style="fill:#000000;fill-opacity:1;fill-rule:evenodd;stroke:none"
       d="m 561.62,215.43 c -3.05,0 -4.57,-0.69 -4.57,-2.08 0,-1.37 1.52,-2.05 4.57,-2.05 3.04,0 4.57,0.68 4.57,2.05 0,1.39 -1.53,2.08 -4.57,2.08 z m -19.85,0.9 c -1.46,0 -2.61,-0.22 -3.42,-0.67 -0.82,-0.44 -1.22,-1.01 -1.22,-1.72 0,-0.7 0.4,-1.28 1.2,-1.72 0.8,-0.45 1.95,-0.67 3.44,-0.67 1.5,0 2.66,0.22 3.46,0.67 0.8,0.44 1.2,1.02 1.2,1.72 0,0.71 -0.41,1.28 -1.22,1.72 -0.82,0.45 -1.96,0.67 -3.44,0.67 z m 19.85,0.34 c 1.97,0 3.48,-0.3 4.53,-0.9 1.06,-0.61 1.58,-1.41 1.58,-2.42 0,-0.98 -0.53,-1.77 -1.6,-2.38 -1.07,-0.61 -2.57,-0.91 -4.51,-0.91 -1.94,0 -3.44,0.31 -4.51,0.92 -1.07,0.62 -1.61,1.41 -1.61,2.37 0,1.04 0.53,1.85 1.57,2.44 1.05,0.59 2.56,0.88 4.55,0.88 z m -19.85,0.92 c 1.99,0 3.53,-0.34 4.6,-1.01 1.08,-0.68 1.62,-1.55 1.62,-2.64 0,-1.08 -0.55,-1.96 -1.63,-2.64 -1.09,-0.68 -2.62,-1.02 -4.59,-1.02 -1.95,0 -3.47,0.34 -4.56,1.02 -1.08,0.68 -1.62,1.56 -1.62,2.64 0,1.08 0.54,1.96 1.61,2.63 1.08,0.68 2.6,1.02 4.57,1.02 z m 11.09,1.78 h 17.52 v -1.28 h -17.52 z m 25.11,8.14 h 1.45 v -3.02 c 0,-1.63 0.45,-3.22 1.36,-4.78 0.91,-1.56 2.14,-2.84 3.69,-3.84 l -1.03,-1.14 c -1.06,0.8 -2.05,1.82 -2.97,3.04 -0.92,1.23 -1.51,2.28 -1.76,3.17 -0.3,-1.02 -0.89,-2.14 -1.79,-3.38 -0.89,-1.23 -1.86,-2.25 -2.91,-3.07 l -1.13,0.98 c 1.55,1.04 2.79,2.38 3.71,4 0.92,1.62 1.38,3.27 1.38,4.95 z m -43.81,0.2 h 8.4 c -0.25,-2.64 -1.25,-4.8 -3.01,-6.49 -1.77,-1.69 -3.6,-2.92 -5.51,-3.67 l -1.04,1.19 c 1.93,0.61 3.65,1.63 5.16,3.06 1.5,1.43 2.39,2.97 2.67,4.61 h -6.67 z m 21.65,0.69 h 11.62 v -4.29 h -10.18 v -1.87 h 10.62 v -1.28 h -12.06 v 4.35 h 10.15 v 1.82 h -10.15 z m 31.32,0.42 h 1.47 v -18.88 h -1.47 z m -40.98,0 h 1.46 v -5.19 h 2.84 v -1.37 h -2.84 v -4.27 h -1.46 z" /><path
       id="path132"
       style="fill:#000000;fill-opacity:1;fill-rule:evenodd;stroke:none"
       d="m 590.14,155.31 c -1.5,0 -2.65,-0.2 -3.43,-0.61 -0.78,-0.4 -1.18,-0.94 -1.18,-1.64 0,-0.69 0.4,-1.23 1.18,-1.64 0.79,-0.4 1.93,-0.61 3.43,-0.61 1.5,0 2.65,0.21 3.43,0.61 0.79,0.41 1.18,0.95 1.18,1.64 0,0.7 -0.39,1.24 -1.18,1.64 -0.78,0.41 -1.93,0.61 -3.43,0.61 z m 0,1.24 c 1.99,0 3.51,-0.31 4.57,-0.94 1.06,-0.63 1.59,-1.48 1.59,-2.55 0,-1.06 -0.53,-1.91 -1.59,-2.54 -1.05,-0.63 -2.58,-0.95 -4.57,-0.95 -1.99,0 -3.51,0.32 -4.57,0.95 -1.05,0.63 -1.58,1.48 -1.58,2.54 0,1.07 0.53,1.92 1.59,2.55 1.06,0.63 2.58,0.94 4.56,0.94 z m 16.29,4.45 c -0.83,0 -1.51,-0.27 -2.03,-0.81 -0.51,-0.54 -0.77,-1.23 -0.77,-2.06 0,-0.84 0.26,-1.53 0.78,-2.06 0.52,-0.54 1.2,-0.8 2.02,-0.8 0.82,0 1.49,0.26 2.02,0.79 0.53,0.54 0.79,1.23 0.79,2.07 0,0.84 -0.26,1.53 -0.78,2.06 -0.53,0.54 -1.2,0.81 -2.03,0.81 z m 0,1.28 c 1.19,0 2.19,-0.39 2.99,-1.17 0.8,-0.78 1.2,-1.77 1.2,-2.98 0,-1.22 -0.4,-2.21 -1.21,-2.99 -0.8,-0.77 -1.79,-1.16 -2.98,-1.16 -1.18,0 -2.18,0.39 -2.99,1.17 -0.81,0.78 -1.21,1.78 -1.21,2.98 0,1.2 0.4,2.19 1.21,2.97 0.8,0.79 1.8,1.18 2.99,1.18 z m 20.1,4.71 h 1.45 v -3.02 c 0,-1.64 0.46,-3.23 1.37,-4.79 0.91,-1.56 2.13,-2.84 3.68,-3.84 L 632,154.2 c -1.05,0.81 -2.04,1.82 -2.97,3.05 -0.92,1.22 -1.5,2.28 -1.75,3.16 -0.3,-1.01 -0.9,-2.14 -1.79,-3.37 -0.9,-1.24 -1.87,-2.26 -2.92,-3.07 l -1.12,0.97 c 1.55,1.05 2.78,2.38 3.7,4 0.92,1.62 1.38,3.27 1.38,4.96 z m -20.88,0.84 h 1.47 v -2.93 h 4.19 v -1.3 h -9.85 v 1.3 h 4.19 z m -21.34,0.02 h 11.72 v -1.3 H 585.8 v -3.69 h 10.46 v -1.3 h -5.37 v -2.45 h 8.01 v -1.3 h -17.52 v 1.3 h 8.02 v 2.45 h -5.09 z m 51.38,0.44 h 1.47 v -18.88 h -1.47 z m -19.5,0 h 1.47 v -18.88 h -1.47 v 8.88 h -2.24 v -8.28 h -1.44 v 17.92 h 1.44 v -8.34 h 2.24 z" /><path
       id="path134"
       style="fill:#000000;fill-opacity:1;fill-rule:evenodd;stroke:none"
       d="m 616.04,76.03 v -4.325 h 8.64 v 4.325 z m 18.54,0.803 h 12.28 v -6.928 h -1.45 v 5.626 h -10.83 z m -19.98,0.489 h 11.52 V 70.423 H 614.6 Z m 41.88,10.157 h 1.45 v -3.024 c 0,-1.631 0.46,-3.226 1.37,-4.785 0.91,-1.559 2.13,-2.837 3.68,-3.835 l -1.03,-1.145 c -1.05,0.809 -2.04,1.825 -2.97,3.048 -0.92,1.223 -1.51,2.278 -1.75,3.165 -0.3,-1.017 -0.9,-2.143 -1.79,-3.376 -0.9,-1.232 -1.87,-2.257 -2.92,-3.072 l -1.13,0.978 c 1.56,1.044 2.79,2.377 3.71,3.998 0.92,1.621 1.38,3.273 1.38,4.956 z m -40.29,0.763 h 1.4 v -1.986 c 0,-1.259 0.46,-2.466 1.39,-3.621 0.93,-1.154 2.04,-2.006 3.33,-2.554 l -0.96,-1.056 c -0.81,0.437 -1.67,1.076 -2.57,1.917 -0.89,0.842 -1.51,1.625 -1.86,2.349 -0.34,-0.816 -0.95,-1.681 -1.81,-2.598 -0.86,-0.917 -1.76,-1.636 -2.69,-2.158 l -1.07,1.008 c 1.39,0.672 2.55,1.628 3.46,2.867 0.92,1.24 1.38,2.522 1.38,3.846 z m 49.45,0.538 h 1.47 V 69.905 h -1.47 z m -20.23,0 h 1.45 V 77.899 h -1.45 v 4.531 h -4.11 v 1.321 h 4.11 z m -20.75,0 h 1.46 v -5.029 h 2.85 V 82.43 h -2.85 v -4.071 h -1.46 z m 11.9,0.177 h 1.47 v -2.202 h 4.28 v -1.282 h -4.28 v -0.822 c 0,-0.959 0.5,-1.95 1.49,-2.975 1,-1.024 2.11,-1.715 3.34,-2.074 l -0.99,-1.184 c -2.13,1.031 -3.65,2.368 -4.57,4.012 -0.86,-1.775 -2.4,-3.246 -4.61,-4.413 l -1.07,1.125 c 1.36,0.489 2.52,1.283 3.48,2.383 0.96,1.099 1.44,2.141 1.44,3.126 v 0.822 h -4.31 v 1.282 h 4.33 z" /><path
       id="path136"
       style="fill:#000000;fill-opacity:1;fill-rule:evenodd;stroke:none"
       d="m 584.98,33.548 h 12.34 v -7.075 h -1.46 v 5.773 h -10.88 z m -1.12,6.233 v -2.848 h 4.85 v 2.848 z m -21.29,3.904 h 7.36 v -1.301 h -5.91 v -4.13 h 5.34 v -1.262 h -5.34 v -4.325 h 0.75 c 2.58,0 4.49,0.072 5.74,0.215 l 0.1,-1.243 c -1.9,-0.169 -4.58,-0.254 -8.04,-0.254 z m 43.83,0.362 h 1.45 v -3.024 c 0,-1.63 0.45,-3.225 1.36,-4.784 0.92,-1.56 2.14,-2.838 3.69,-3.836 l -1.03,-1.145 c -1.06,0.809 -2.05,1.825 -2.97,3.048 -0.92,1.223 -1.51,2.278 -1.75,3.165 -0.3,-1.017 -0.9,-2.143 -1.8,-3.375 -0.89,-1.233 -1.86,-2.258 -2.91,-3.073 l -1.13,0.979 c 1.56,1.043 2.79,2.376 3.71,3.997 0.92,1.621 1.38,3.273 1.38,4.956 z m -23.98,0.499 h 1.44 v -3.464 h 4.85 v 3.464 h 1.44 v -8.914 h -7.73 z m 33.14,0.802 h 1.47 V 26.473 h -1.47 z m -19.7,0 h 1.46 V 34.585 h -1.46 v 4.413 h -2.18 v -4.413 h -1.45 v 10.382 h 1.45 v -4.648 h 2.18 z m -19.88,0 h 1.47 V 26.473 h -1.47 v 9.814 h -2.43 V 27.05 h -1.44 v 17.917 h 1.44 v -7.378 h 2.43 z" /><path
       id="path138"
       style="fill:#000000;fill-opacity:1;fill-rule:evenodd;stroke:none"
       d="m 490.38,105.64 c -1.49,0 -2.64,-0.22 -3.42,-0.68 -0.79,-0.45 -1.19,-1.03 -1.19,-1.72 0,-0.71 0.4,-1.29 1.19,-1.74 0.79,-0.45 1.93,-0.67 3.42,-0.67 1.48,0 2.62,0.22 3.41,0.67 0.8,0.45 1.2,1.02 1.2,1.74 0,0.7 -0.4,1.28 -1.19,1.73 -0.78,0.45 -1.93,0.67 -3.42,0.67 z m 13.98,0.27 h 1.47 v -4.72 h 10.66 v -1.281 h -12.13 z m 19.12,0.27 h 1.47 v -4.74 h 10.68 v -1.33 h -12.15 z m -33.1,0.71 c 1.98,0 3.5,-0.34 4.57,-1.02 1.07,-0.67 1.6,-1.55 1.6,-2.63 0,-1.09 -0.53,-1.97 -1.61,-2.65 -1.07,-0.683 -2.59,-1.023 -4.56,-1.023 -1.97,0 -3.49,0.34 -4.56,1.023 -1.08,0.68 -1.61,1.56 -1.61,2.65 0,1.08 0.53,1.96 1.6,2.63 1.07,0.68 2.59,1.02 4.57,1.02 z m -9.02,10.44 h 9.71 v -1.3 h -4.14 v -0.48 c 0,-1.26 0.47,-2.47 1.41,-3.62 0.95,-1.16 2.05,-2 3.3,-2.52 l -0.99,-1.07 c -0.85,0.47 -1.71,1.12 -2.57,1.95 -0.86,0.84 -1.46,1.62 -1.81,2.35 -0.37,-0.83 -0.99,-1.71 -1.86,-2.64 -0.87,-0.93 -1.74,-1.64 -2.63,-2.14 l -1.04,1.01 c 1.35,0.65 2.48,1.58 3.4,2.81 0.91,1.23 1.37,2.52 1.37,3.87 v 0.48 h -4.15 z m 42.12,0.02 h 11.78 c 0,-2.89 -0.06,-5.28 -0.19,-7.16 h 3 v -1.32 h -7.91 v -5.61 h -1.46 v 5.61 h -8.14 v 1.32 h 13.08 c 0.11,1.09 0.17,3.04 0.17,5.85 h -10.33 z m -17.89,0.2 h 1.42 v -2.43 c 0,-1.25 0.49,-2.51 1.46,-3.78 0.97,-1.27 2.06,-2.18 3.27,-2.75 l -0.98,-1.06 c -0.93,0.58 -1.81,1.31 -2.64,2.22 -0.84,0.9 -1.42,1.73 -1.77,2.47 -0.37,-0.87 -1,-1.83 -1.89,-2.87 -0.89,-1.05 -1.77,-1.82 -2.64,-2.31 l -1.06,1.01 c 1.35,0.68 2.49,1.68 3.42,3.02 0.94,1.33 1.41,2.69 1.41,4.05 z m 8.94,0.62 h 1.46 v -13.79 h -1.46 v 8.11 h -4.41 v 1.31 h 4.41 z m -19.83,0 h 1.47 v -10.9 h -1.47 v 5.35 h -4.4 v 1.3 h 4.4 z" /><path
       id="path140"
       style="fill:#000000;fill-opacity:1;fill-rule:evenodd;stroke:none"
       d="m 415.82,181.27 c -1.49,0 -2.63,-0.21 -3.43,-0.62 -0.8,-0.41 -1.2,-0.97 -1.2,-1.67 0,-0.7 0.4,-1.25 1.21,-1.66 0.8,-0.42 1.94,-0.62 3.42,-0.62 1.48,0 2.63,0.2 3.45,0.62 0.81,0.41 1.22,0.96 1.22,1.66 0,0.7 -0.41,1.26 -1.22,1.67 -0.81,0.41 -1.96,0.62 -3.45,0.62 z m 19.22,0.44 c -1.49,0 -2.64,-0.23 -3.43,-0.68 -0.79,-0.45 -1.18,-1.03 -1.18,-1.73 0,-0.7 0.4,-1.28 1.19,-1.73 0.79,-0.45 1.93,-0.68 3.42,-0.68 1.48,0 2.62,0.23 3.41,0.67 0.8,0.45 1.2,1.03 1.2,1.74 0,0.71 -0.4,1.28 -1.19,1.73 -0.79,0.45 -1.93,0.68 -3.42,0.68 z m 13.94,0.54 h 1.47 v -4.75 h 10.68 v -1.32 h -12.15 z m -33.16,0.26 c 2,0 3.54,-0.32 4.6,-0.97 1.07,-0.65 1.6,-1.5 1.6,-2.56 0,-1.06 -0.53,-1.92 -1.61,-2.57 -1.08,-0.65 -2.61,-0.97 -4.59,-0.97 -1.99,0 -3.52,0.32 -4.59,0.97 -1.07,0.65 -1.6,1.51 -1.6,2.57 0,1.06 0.53,1.91 1.59,2.56 1.06,0.65 2.59,0.97 4.6,0.97 z m 19.22,0.44 c 1.98,0 3.51,-0.34 4.57,-1.01 1.06,-0.68 1.59,-1.56 1.59,-2.64 0,-1.08 -0.53,-1.96 -1.6,-2.65 -1.06,-0.68 -2.58,-1.02 -4.56,-1.02 -1.97,0 -3.49,0.34 -4.57,1.02 -1.07,0.69 -1.61,1.57 -1.61,2.65 0,1.08 0.54,1.96 1.61,2.64 1.07,0.67 2.59,1.01 4.57,1.01 z m -25.96,8.18 h 1.43 l 0.17,-5.94 h 3.12 l 0.17,5.94 h 1.43 l -0.24,-5.92 c 1.17,0 2.15,0.07 2.94,0.21 l 0.1,-1.27 c -0.82,-0.16 -1.95,-0.24 -3.37,-0.24 h -8.09 v 1.28 h 2.56 z m -1.88,2.14 h 10.22 v -1.28 H 407.2 Z m 41.78,0.14 h 11.78 c 0,-2.89 -0.06,-5.27 -0.19,-7.15 h 3 v -1.32 h -7.91 v -5.62 h -1.46 v 5.62 h -8.14 v 1.32 h 13.08 c 0.11,1.08 0.17,3.03 0.17,5.85 h -10.33 z m -9.64,0.82 h 1.46 V 189 h 2.85 v -1.3 h -2.85 v -4.35 h -1.46 z m -19.14,0 h 1.47 v -11.22 h -1.47 v 3.48 h -3.32 v 1.25 h 3.32 v 1.81 h -3.32 v 1.24 h 3.32 z m 10.87,0.18 h 1.46 v -2.2 h 4.31 v -1.28 h -4.31 v -0.62 c 0,-0.96 0.5,-1.95 1.51,-2.98 1,-1.03 2.1,-1.72 3.32,-2.07 l -0.96,-1.18 c -0.98,0.45 -1.9,1.05 -2.76,1.81 -0.86,0.76 -1.47,1.48 -1.83,2.17 -0.39,-0.81 -1.02,-1.63 -1.89,-2.45 -0.87,-0.82 -1.77,-1.46 -2.7,-1.92 l -1.1,1.1 c 1.33,0.48 2.48,1.26 3.46,2.36 0.98,1.1 1.47,2.16 1.47,3.16 v 0.62 h -4.29 v 1.28 h 4.31 z" /><path
       id="path142"
       style="fill:#000000;fill-opacity:1;fill-rule:evenodd;stroke:none"
       d="m 356.43,350.13 h 1.47 v -4.8 h 10.94 v -1.32 h -12.41 z m 39.22,0.04 h 1.46 v -4.74 h 10.68 v -1.32 h -12.14 z m -36.64,9.97 c -1.03,0 -1.87,-0.32 -2.51,-0.95 -0.65,-0.64 -0.97,-1.48 -0.97,-2.54 0,-1.05 0.32,-1.9 0.96,-2.54 0.64,-0.63 1.48,-0.95 2.52,-0.95 1.04,0 1.88,0.32 2.53,0.95 0.64,0.64 0.96,1.49 0.96,2.54 0,1.06 -0.32,1.9 -0.96,2.54 -0.65,0.63 -1.49,0.95 -2.53,0.95 z m 14.39,0.38 h 8.54 v -1.3 h -3.56 v -2.19 c 0,-1.57 0.38,-3.13 1.15,-4.69 0.76,-1.56 1.68,-2.79 2.75,-3.68 l -1.11,-0.95 c -1.69,1.66 -2.87,3.63 -3.54,5.9 -0.21,-0.93 -0.69,-1.98 -1.42,-3.17 -0.74,-1.19 -1.52,-2.18 -2.36,-2.99 l -1.15,0.92 c 1.11,0.79 2.09,2.02 2.95,3.72 0.85,1.69 1.28,3.35 1.28,4.96 v 2.17 h -3.53 z m 22.25,0.82 h 11.78 c 0,-2.89 -0.07,-5.28 -0.2,-7.15 h 3.01 v -1.33 h -7.92 v -5.61 h -1.46 v 5.61 h -8.14 v 1.33 h 13.08 c 0.11,1.08 0.17,3.03 0.17,5.85 h -10.32 z m -36.64,0.1 c 1.42,0 2.59,-0.44 3.53,-1.32 0.93,-0.88 1.4,-2.04 1.4,-3.47 0,-1.41 -0.47,-2.57 -1.41,-3.46 -0.94,-0.89 -2.11,-1.33 -3.52,-1.33 -1.41,0 -2.59,0.44 -3.53,1.33 -0.95,0.89 -1.42,2.05 -1.42,3.46 0,1.42 0.47,2.58 1.41,3.46 0.95,0.88 2.13,1.33 3.54,1.33 z m 24.76,0.34 h 1.44 v -17.92 h -1.44 v 10.5 h -3.29 v 1.3 h 3.29 z m 3.42,0.38 h 1.46 v -18.87 h -1.46 z m -20.32,0 h 1.47 v -13.79 h -1.47 z" /><path
       id="path144"
       style="fill:#000000;fill-opacity:1;fill-rule:evenodd;stroke:none"
       d="m 211.47,383.04 h 1.48 v -4.82 h 10.64 v -1.28 h -12.12 z m 19.1,0.17 h 1.46 v -4.74 h 10.68 v -1.32 h -12.14 z m -36.87,5.96 c -1.02,0 -1.82,-0.2 -2.41,-0.62 -0.59,-0.41 -0.88,-0.95 -0.88,-1.61 0,-0.66 0.29,-1.19 0.87,-1.59 0.59,-0.41 1.39,-0.61 2.42,-0.61 1.01,0 1.8,0.2 2.39,0.61 0.58,0.41 0.87,0.94 0.87,1.59 0,0.66 -0.29,1.2 -0.88,1.61 -0.58,0.42 -1.38,0.62 -2.38,0.62 z m 0,1.25 c 1.45,0 2.6,-0.32 3.45,-0.96 0.85,-0.63 1.27,-1.44 1.27,-2.42 0,-0.96 -0.35,-1.75 -1.05,-2.38 -0.7,-0.63 -1.69,-1.01 -2.96,-1.12 v -2.68 c 2.29,0.03 4.19,0.09 5.69,0.19 l 0.1,-1.26 c -3.44,-0.2 -7.7,-0.3 -12.78,-0.3 l -0.14,1.28 c 1.73,0 3.62,0.02 5.67,0.07 v 2.68 c -1.29,0.12 -2.28,0.49 -2.97,1.12 -0.69,0.63 -1.04,1.4 -1.04,2.3 0,1.02 0.42,1.85 1.27,2.5 0.85,0.65 2.01,0.98 3.49,0.98 z m 36.87,3.96 h 11.78 c 0,-2.89 -0.07,-5.27 -0.2,-7.15 h 3.01 v -1.32 h -7.92 v -5.62 h -1.46 v 5.62 h -8.14 v 1.32 h 13.08 c 0.11,1.08 0.17,3.03 0.17,5.85 h -10.32 z m -37.6,0.74 h 1.44 v -2.46 h 4.91 v -1.3 h -11.28 v 1.3 h 4.93 z m 19.82,0.06 h 1.46 V 393 h 4.29 v -1.3 h -4.29 v -1.33 c 0,-0.97 0.5,-1.99 1.5,-3.05 1,-1.06 2.11,-1.77 3.34,-2.14 l -0.99,-1.2 c -0.94,0.43 -1.84,1.05 -2.71,1.84 -0.86,0.79 -1.48,1.56 -1.86,2.29 -0.39,-0.84 -1.03,-1.7 -1.91,-2.57 -0.89,-0.87 -1.78,-1.53 -2.68,-1.98 l -1.08,1.12 c 1.28,0.45 2.42,1.25 3.41,2.41 1,1.17 1.5,2.25 1.5,3.26 v 1.35 h -4.31 v 1.3 h 4.33 z m 8.84,0.02 h 1.46 v -13.81 h -1.46 v 6.96 h -4.21 v 1.3 h 4.21 z m -20.42,0 h 1.46 v -8.41 h 2.9 v -1.31 h -2.9 v -9.15 h -1.46 z" /><path
       id="path146"
       style="fill:#000000;fill-opacity:1;fill-rule:evenodd;stroke:none"
       d="m 121.48,401.42 h 1.47 v -4.35 h 11.34 v -1.31 h -12.81 z m 19.5,0.73 h 1.47 v -4.74 h 10.67 v -1.32 h -12.14 z m -39.14,1.13 h 11.62 v -4.39 h -10.15 v -1.88 h 10.67 v -1.3 h -12.14 v 4.47 h 10.19 V 402 h -10.19 z m 29.08,2.18 0.1,-1.26 c -0.95,-0.07 -2.7,-0.15 -5.25,-0.26 v -4.07 h -1.44 v 4.01 c -2.53,-0.1 -4.39,-0.14 -5.57,-0.14 l -0.21,1.36 c 4.76,0 8.88,0.12 12.37,0.36 z m -5.95,7.1 c -0.96,0 -1.74,-0.24 -2.33,-0.71 -0.58,-0.47 -0.88,-1.01 -0.88,-1.63 0,-0.64 0.3,-1.19 0.88,-1.66 0.59,-0.47 1.37,-0.71 2.33,-0.71 0.97,0 1.74,0.24 2.34,0.71 0.59,0.47 0.88,1.02 0.88,1.66 0,0.62 -0.29,1.16 -0.88,1.63 -0.6,0.47 -1.37,0.71 -2.34,0.71 z m 16.01,0.76 h 11.78 c 0,-2.89 -0.06,-5.28 -0.19,-7.15 h 3 v -1.33 h -7.92 v -5.61 h -1.45 v 5.61 h -8.15 v 1.33 h 13.09 c 0.11,1.08 0.16,3.03 0.16,5.85 h -10.32 z m -16.01,0.48 c 1.38,0 2.51,-0.34 3.37,-1.02 0.87,-0.69 1.3,-1.54 1.3,-2.56 0,-1.03 -0.44,-1.89 -1.3,-2.58 -0.87,-0.69 -1.99,-1.03 -3.37,-1.03 -1.38,0 -2.5,0.34 -3.37,1.03 -0.87,0.69 -1.31,1.55 -1.31,2.58 0,1.01 0.44,1.86 1.3,2.55 0.86,0.68 1.99,1.03 3.38,1.03 z m 7.37,0.34 h 1.49 v -14.93 h -1.49 v 2.02 h -4.13 v 1.31 h 4.13 z m -20.33,0 h 1.45 v -9.79 h -1.45 v 3.71 h -3.73 v 1.33 h 3.73 z m -8.85,0.18 h 1.47 v -2 h 4.28 v -1.28 h -4.28 v -0.53 c 0,-0.95 0.49,-1.9 1.47,-2.87 0.98,-0.96 2.1,-1.63 3.36,-1.99 l -0.99,-1.21 c -2.1,1 -3.62,2.28 -4.57,3.85 -0.82,-1.67 -2.35,-3.09 -4.605,-4.25 l -1.076,1.1 c 1.357,0.48 2.521,1.25 3.481,2.31 0.96,1.05 1.44,2.08 1.44,3.06 v 0.53 h -4.305 v 1.28 h 4.325 z" /><path
       id="path148"
       style="fill:#000000;fill-opacity:1;fill-rule:evenodd;stroke:none"
       d="m 201.52,286.16 h 1.46 v -4.3 h 10.68 v -1.3 h -12.14 z m 21.02,0.48 h 1.49 v -4.82 h 10.63 v -1.28 h -12.12 z m -23.91,2.4 h 17.52 v -1.33 h -8.02 v -4.3 h -1.48 v 4.3 h -8.02 z m 45.15,8.46 h 1.45 v -3.03 c 0,-1.63 0.45,-3.22 1.36,-4.78 0.91,-1.56 2.14,-2.84 3.69,-3.84 l -1.03,-1.14 c -1.06,0.81 -2.05,1.82 -2.97,3.05 -0.92,1.22 -1.51,2.27 -1.75,3.16 -0.3,-1.02 -0.9,-2.14 -1.8,-3.37 -0.89,-1.24 -1.86,-2.26 -2.91,-3.08 l -1.13,0.98 c 1.56,1.05 2.79,2.38 3.71,4 0.92,1.62 1.38,3.27 1.38,4.96 z m -37.11,1.16 h 1.48 v -1.81 h 5.95 v -1.32 h -5.83 c 0.38,-0.88 1.29,-1.65 2.72,-2.29 1.44,-0.65 2.85,-0.98 4.24,-0.98 l -0.75,-1.36 c -1.42,0.2 -2.86,0.65 -4.31,1.37 -1.44,0.72 -2.37,1.39 -2.78,2.02 -0.4,-0.64 -1.28,-1.29 -2.64,-1.98 -1.36,-0.68 -2.81,-1.15 -4.36,-1.41 l -0.84,1.34 c 1.35,0 2.75,0.33 4.21,0.98 1.45,0.65 2.38,1.42 2.77,2.31 h -5.85 v 1.32 h 5.99 z m 17.19,0.12 h 1.47 v -2.18 h 4.28 v -1.3 h -4.28 v -1.34 c 0,-0.97 0.5,-1.98 1.49,-3.04 1,-1.06 2.11,-1.78 3.34,-2.14 l -0.99,-1.2 c -0.94,0.43 -1.84,1.05 -2.7,1.84 -0.87,0.79 -1.49,1.55 -1.87,2.28 -0.39,-0.84 -1.03,-1.69 -1.91,-2.56 -0.88,-0.88 -1.78,-1.54 -2.68,-1.99 l -1.07,1.13 c 1.28,0.44 2.41,1.25 3.41,2.41 0.99,1.17 1.49,2.25 1.49,3.26 v 1.35 h -4.31 v 1.3 h 4.33 z m 29.08,0.02 h 1.47 v -18.88 h -1.47 z m -20.24,0 h 1.46 v -13.81 h -1.46 v 6.96 h -4.2 v 1.3 h 4.2 z" /><path
       id="path150"
       style="fill:#000000;fill-opacity:1;fill-rule:evenodd;stroke:none"
       d="m 298.99,233.77 c -3.16,0 -4.75,-0.63 -4.75,-1.89 0,-1.24 1.59,-1.86 4.75,-1.86 3.16,0 4.75,0.62 4.75,1.86 0,1.26 -1.59,1.89 -4.75,1.89 z m 0,1.24 c 2.05,0 3.61,-0.27 4.68,-0.81 1.08,-0.54 1.61,-1.32 1.61,-2.32 0,-0.99 -0.53,-1.75 -1.58,-2.29 -1.06,-0.54 -2.63,-0.81 -4.71,-0.81 -2.08,0 -3.65,0.27 -4.71,0.81 -1.05,0.54 -1.58,1.3 -1.58,2.29 0,1 0.53,1.78 1.61,2.32 1.07,0.54 2.63,0.81 4.68,0.81 z m 15.15,0.56 h 1.48 v -4.82 h 10.64 v -1.28 h -12.12 z m 19.1,0.17 h 1.47 V 231 h 10.67 v -1.32 h -12.14 z m -34.25,7.38 c -1.46,0 -2.59,-0.14 -3.39,-0.43 -0.8,-0.29 -1.2,-0.68 -1.2,-1.15 0,-0.48 0.39,-0.86 1.17,-1.14 0.78,-0.29 1.92,-0.43 3.42,-0.43 1.51,0 2.65,0.14 3.42,0.43 0.78,0.29 1.17,0.67 1.17,1.14 0,0.47 -0.4,0.85 -1.2,1.14 -0.8,0.29 -1.93,0.44 -3.39,0.44 z m 0,1.24 c 2,0 3.52,-0.25 4.56,-0.75 1.04,-0.5 1.56,-1.19 1.56,-2.07 0,-0.82 -0.46,-1.47 -1.38,-1.96 -0.92,-0.49 -2.26,-0.76 -4.02,-0.82 v -1.45 h 8.04 v -1.26 h -17.52 v 1.26 h 8.04 v 1.45 c -1.78,0.06 -3.12,0.33 -4.04,0.82 -0.92,0.49 -1.38,1.14 -1.38,1.96 0,0.88 0.52,1.58 1.57,2.08 1.04,0.49 2.56,0.74 4.57,0.74 z m 34.25,2.55 h 11.78 c 0,-2.89 -0.07,-5.28 -0.2,-7.15 h 3.01 v -1.33 h -7.92 v -5.61 h -1.46 v 5.61 h -8.14 v 1.33 h 13.09 c 0.11,1.08 0.16,3.03 0.16,5.85 h -10.32 z m -17.78,0.8 h 1.47 v -2.18 h 4.28 v -1.3 h -4.28 v -1.33 c 0,-0.98 0.5,-1.99 1.49,-3.05 1,-1.06 2.11,-1.77 3.34,-2.14 l -0.99,-1.2 c -0.94,0.43 -1.84,1.05 -2.7,1.84 -0.87,0.79 -1.49,1.56 -1.87,2.29 -0.39,-0.85 -1.03,-1.7 -1.91,-2.57 -0.88,-0.87 -1.78,-1.53 -2.68,-1.98 l -1.07,1.12 c 1.28,0.44 2.41,1.25 3.41,2.41 0.99,1.17 1.49,2.25 1.49,3.26 v 1.35 h -4.31 v 1.3 h 4.33 z m 8.84,0.02 h 1.46 v -13.81 h -1.46 v 6.96 h -4.2 v 1.3 h 4.2 z m -26.03,0.23 h 1.44 v -1.74 h 6.37 v -1.26 H 291.9 v 1.26 h 6.37 z" /><path
       id="path152"
       style="fill:#000000;fill-opacity:1;fill-rule:evenodd;stroke:none"
       d="m 302.77,156.37 c -1.51,0 -2.68,-0.16 -3.51,-0.49 -0.83,-0.34 -1.24,-0.79 -1.24,-1.37 0,-0.56 0.41,-1 1.23,-1.34 0.82,-0.34 2,-0.5 3.52,-0.5 1.52,0 2.69,0.16 3.51,0.5 0.81,0.33 1.22,0.77 1.22,1.34 0,0.58 -0.41,1.04 -1.23,1.37 -0.83,0.33 -1.99,0.49 -3.5,0.49 z m 0,1.27 c 2.04,0 3.59,-0.28 4.67,-0.82 1.07,-0.54 1.61,-1.32 1.61,-2.31 0,-0.98 -0.55,-1.74 -1.63,-2.29 -1.09,-0.54 -2.64,-0.82 -4.65,-0.82 -2.02,0 -3.57,0.28 -4.66,0.82 -1.09,0.55 -1.63,1.31 -1.63,2.29 0,0.99 0.54,1.77 1.61,2.31 1.07,0.54 2.63,0.82 4.68,0.82 z m 20.42,0.02 c -1.49,0 -2.63,-0.23 -3.42,-0.68 -0.79,-0.46 -1.18,-1.03 -1.18,-1.73 0,-0.7 0.39,-1.28 1.18,-1.73 0.8,-0.45 1.94,-0.68 3.42,-0.68 1.49,0 2.62,0.23 3.42,0.67 0.8,0.45 1.19,1.03 1.19,1.74 0,0.7 -0.39,1.28 -1.18,1.73 -0.79,0.45 -1.93,0.68 -3.43,0.68 z m 13.07,0.53 h 1.47 v -4.74 h 10.67 v -1.32 h -12.14 z m -13.07,0.71 c 1.98,0 3.5,-0.34 4.57,-1.01 1.07,-0.68 1.61,-1.56 1.61,-2.64 0,-1.08 -0.54,-1.97 -1.61,-2.65 -1.07,-0.68 -2.6,-1.02 -4.57,-1.02 -1.97,0 -3.49,0.34 -4.56,1.02 -1.07,0.68 -1.61,1.57 -1.61,2.65 0,1.08 0.54,1.96 1.61,2.64 1.06,0.67 2.59,1.01 4.56,1.01 z m -23.38,6.52 c -2.17,0 -3.25,-0.52 -3.25,-1.55 0,-1.03 1.08,-1.55 3.25,-1.55 2.14,0 3.22,0.52 3.22,1.55 0,1.03 -1.08,1.55 -3.22,1.55 z m 0,1.17 c 1.46,0 2.61,-0.25 3.44,-0.75 0.83,-0.51 1.25,-1.16 1.25,-1.97 0,-0.76 -0.34,-1.38 -1,-1.86 -0.67,-0.48 -1.67,-0.77 -3,-0.85 v -1.32 c 2.76,0.06 4.61,0.14 5.56,0.22 l 0.08,-1.22 c -1.15,-0.08 -3.12,-0.17 -5.92,-0.24 -2.79,-0.08 -4.99,-0.12 -6.61,-0.12 l -0.13,1.26 c 1.41,0 3.27,0.03 5.58,0.08 v 1.34 c -1.31,0.08 -2.3,0.37 -2.96,0.85 -0.66,0.48 -0.99,1.1 -0.99,1.86 0,0.85 0.41,1.52 1.23,2 0.82,0.48 1.97,0.72 3.47,0.72 z m 36.45,2.77 h 11.78 c 0,-2.89 -0.07,-5.27 -0.2,-7.15 h 3.01 v -1.32 h -7.92 v -5.62 h -1.46 v 5.62 h -8.14 v 1.32 h 13.08 c 0.12,1.08 0.17,3.03 0.17,5.85 h -10.32 z m -17.94,0.21 h 1.42 v -2.01 c 0,-1.26 0.47,-2.47 1.42,-3.62 0.95,-1.16 2.04,-1.99 3.3,-2.52 l -0.99,-1.06 c -0.86,0.46 -1.71,1.11 -2.57,1.94 -0.87,0.84 -1.47,1.62 -1.82,2.35 -0.37,-0.83 -0.99,-1.7 -1.85,-2.63 -0.87,-0.93 -1.75,-1.65 -2.64,-2.14 l -1.03,1.01 c 1.35,0.64 2.48,1.58 3.39,2.8 0.92,1.23 1.37,2.52 1.37,3.87 z m 9.2,0.61 h 1.47 v -10.9 h -1.47 v 5.63 h -4.4 v 1.31 h 4.4 z m -20.16,0 h 1.44 v -12.2 h -1.44 z m -8.28,0.16 h 1.44 v -1.92 h 4.84 v -1.28 h -11.13 v 1.28 h 4.85 z" /><path
       id="path154"
       style="fill:#000000;fill-opacity:1;fill-rule:evenodd;stroke:none"
       d="m 253.13,85.587 h 1.47 v -4.354 h 11.34 v -1.302 h -12.81 z m 16.58,2.74 h 17.51 v -1.301 h -8.01 v -7.594 h -1.49 v 7.594 h -8.01 z m -7.13,1.302 0.09,-1.263 c -0.95,-0.065 -2.7,-0.15 -5.24,-0.254 v -4.071 h -1.45 v 4.002 c -2.52,-0.091 -4.38,-0.137 -5.57,-0.137 l -0.2,1.361 c 4.75,0 8.88,0.12 12.37,0.362 z m -5.95,7.094 c -0.97,0 -1.75,-0.235 -2.33,-0.705 -0.59,-0.469 -0.88,-1.014 -0.88,-1.634 0,-0.633 0.29,-1.185 0.88,-1.658 0.58,-0.473 1.36,-0.71 2.33,-0.71 0.96,0 1.74,0.237 2.33,0.71 0.59,0.473 0.89,1.025 0.89,1.658 0,0.62 -0.3,1.165 -0.89,1.634 -0.59,0.47 -1.37,0.705 -2.33,0.705 z m 38.19,0.284 h 1.45 v -3.024 c 0,-1.631 0.45,-3.226 1.36,-4.785 0.91,-1.559 2.14,-2.838 3.69,-3.836 l -1.03,-1.145 c -1.06,0.809 -2.05,1.825 -2.97,3.048 -0.92,1.224 -1.51,2.279 -1.76,3.166 -0.3,-1.018 -0.9,-2.143 -1.79,-3.376 -0.89,-1.233 -1.86,-2.257 -2.92,-3.072 l -1.12,0.978 c 1.55,1.044 2.79,2.376 3.71,3.997 0.92,1.621 1.38,3.273 1.38,4.956 z m -23.16,0.596 h 13.62 v -1.301 h -6.05 c 0.22,-1.155 1.04,-2.172 2.45,-3.053 1.41,-0.881 3.01,-1.406 4.82,-1.575 l -0.86,-1.184 c -1.49,0.208 -2.94,0.725 -4.34,1.551 -1.4,0.825 -2.34,1.652 -2.83,2.48 -0.46,-0.809 -1.38,-1.641 -2.77,-2.495 -1.38,-0.855 -2.84,-1.406 -4.37,-1.654 l -0.9,1.223 c 1.73,0.177 3.32,0.721 4.75,1.634 1.44,0.914 2.28,1.938 2.5,3.073 h -6.02 z m -15.03,0.363 c 1.38,0 2.5,-0.341 3.37,-1.023 0.86,-0.682 1.29,-1.535 1.29,-2.559 0,-1.031 -0.43,-1.89 -1.3,-2.578 -0.86,-0.688 -1.99,-1.033 -3.36,-1.033 -1.38,0 -2.5,0.346 -3.37,1.038 -0.88,0.691 -1.31,1.549 -1.31,2.573 0,1.011 0.43,1.861 1.3,2.549 0.86,0.688 1.99,1.033 3.38,1.033 z m 47.35,0.342 h 1.46 V 79.432 h -1.46 z m -39.99,0 h 1.49 V 83.376 h -1.49 v 2.025 h -4.12 v 1.302 h 4.12 z" /><path
       id="path156"
       style="fill:#000000;fill-opacity:1;fill-rule:evenodd;stroke:none"
       d="m 415.04,52.566 c -1.47,0 -2.61,-0.224 -3.42,-0.67 -0.8,-0.447 -1.21,-1.026 -1.21,-1.737 0,-0.711 0.41,-1.29 1.21,-1.737 0.81,-0.447 1.95,-0.671 3.42,-0.671 1.48,0 2.62,0.224 3.42,0.671 0.79,0.447 1.19,1.026 1.19,1.737 0,0.711 -0.4,1.29 -1.19,1.737 -0.8,0.446 -1.94,0.67 -3.42,0.67 z m 32.95,0.655 h 1.47 v -4.745 h 10.67 v -1.321 h -12.14 z m -19.32,0 h 12.19 v -3.826 h -10.75 v -1.418 h 11.24 v -1.282 h -12.68 v 3.924 h 10.74 v 1.321 h -10.74 z m -13.63,0.588 c 1.98,0 3.5,-0.34 4.57,-1.018 1.07,-0.679 1.61,-1.556 1.61,-2.632 0,-1.077 -0.54,-1.954 -1.61,-2.633 -1.07,-0.678 -2.59,-1.017 -4.57,-1.017 -1.97,0 -3.5,0.337 -4.57,1.013 -1.07,0.675 -1.6,1.554 -1.6,2.637 0,1.083 0.53,1.962 1.6,2.637 1.07,0.675 2.6,1.013 4.57,1.013 z m 22.79,4.481 0.1,-1.213 c -2.47,-0.163 -4.25,-0.251 -5.33,-0.264 v -2.731 h -1.44 v 2.672 l -5.35,-0.186 -0.23,1.301 c 2.91,0 6.99,0.141 12.25,0.421 z m -21.89,3.307 c 0.18,-0.515 0.27,-1.069 0.27,-1.663 0,-0.554 -0.1,-1.135 -0.31,-1.742 h 3.35 v 3.405 z m -4.68,1.909 c -1.02,0 -1.85,-0.33 -2.5,-0.989 -0.65,-0.659 -0.97,-1.52 -0.97,-2.583 0,-1.057 0.32,-1.908 0.97,-2.554 0.65,-0.646 1.48,-0.969 2.5,-0.969 1.01,0 1.85,0.318 2.5,0.954 0.65,0.636 0.98,1.493 0.98,2.569 0,1.083 -0.33,1.949 -0.98,2.598 -0.65,0.649 -1.49,0.974 -2.5,0.974 z m 20.61,0.42 c -1,0 -1.78,-0.164 -2.37,-0.494 -0.58,-0.329 -0.87,-0.771 -0.87,-1.326 0,-0.561 0.3,-1.006 0.88,-1.335 0.58,-0.33 1.37,-0.495 2.36,-0.495 1,0 1.8,0.164 2.39,0.49 0.59,0.326 0.88,0.773 0.88,1.34 0,0.555 -0.29,0.997 -0.88,1.326 -0.59,0.33 -1.38,0.494 -2.39,0.494 z m 16.12,0.46 h 11.78 c 0,-2.89 -0.06,-5.274 -0.2,-7.153 h 3.01 v -1.321 h -7.92 v -5.616 h -1.46 v 5.616 h -8.14 v 1.321 h 13.09 c 0.11,1.083 0.16,3.034 0.16,5.852 h -10.32 z m -16.12,0.724 c 1.44,0 2.59,-0.264 3.44,-0.792 0.85,-0.529 1.28,-1.266 1.28,-2.212 0,-0.952 -0.42,-1.693 -1.27,-2.221 -0.84,-0.528 -1.99,-0.793 -3.45,-0.793 -1.45,0 -2.6,0.268 -3.44,0.803 -0.84,0.535 -1.26,1.272 -1.26,2.211 0,0.94 0.42,1.675 1.27,2.207 0.85,0.532 1.99,0.797 3.43,0.797 z m 7.5,0.098 h 1.47 V 54.004 h -1.47 v 0.744 h -4 v 1.203 h 4 z m -20.12,0 h 1.47 V 54.082 h -1.47 v 2.828 h -4.04 c -0.96,-1.187 -2.28,-1.781 -3.95,-1.781 -1.41,0 -2.58,0.449 -3.52,1.346 -0.93,0.897 -1.4,2.05 -1.4,3.459 0,1.416 0.47,2.578 1.4,3.488 0.94,0.91 2.11,1.365 3.52,1.365 1.72,0 3.06,-0.636 4.03,-1.908 h 3.96 z" /></g></svg>